<?xml version="1.0" encoding="UTF-8" standalone="no"?>
<!-- Created with Inkscape (http://www.inkscape.org/) -->

<svg
   width="210mm"
   height="297mm"
   viewBox="0 0 210 297"
   version="1.1"
   id="svg5"
   xmlns="http://www.w3.org/2000/svg"
   xmlns:svg="http://www.w3.org/2000/svg">
  <defs
     id="defs2" />
  <g
     id="layer1">
    <rect
       style="fill:#00ff00;fill-rule:evenodd;stroke-width:0.466383"
       id="rect63"
       width="209.13448"
       height="297"
       x="0.36308047"
       y="0.36308056" />
    <rect
       style="fill:#0000ff;stroke-width:0.264583"
       id="rect639"
       width="210.58679"
       height="119.09046"
       x="0"
       y="178.6357" />
    <path
       style="fill:#008080;stroke-width:0.264583"
       id="path975"
       d="m 32.879347,273.79342 c -1.029843,-0.94448 -2.004708,-1.9441 -2.972464,-2.95113 0,0 -3.289842,2.00676 -3.289842,2.00676 v 0 c 0.963202,1.00488 1.941846,1.9944 2.897899,3.00609 0,0 3.364407,-2.06172 3.364407,-2.06172 z" />
    <path
       style="fill:#008080;stroke-width:0.264583"
       id="path977"
       d="m 40.396842,276.01979 c 0.787961,-2.66698 1.990622,-5.1833 3.106087,-7.72412 1.448503,-3.76174 3.110682,-7.4257 4.943549,-11.01382 1.080413,-2.10902 2.15792,-4.21963 3.259418,-6.31777 0.737354,-1.35295 1.33818,-2.7737 2.000684,-4.16347 0,0 -3.566221,1.62365 -3.566221,1.62365 v 0 c -0.645478,1.38873 -1.257028,2.79562 -1.992056,4.14048 -1.097455,2.08035 -2.126845,4.19549 -3.189917,6.2935 -1.806395,3.61622 -3.417626,7.31955 -4.971005,11.05089 -1.108363,2.58093 -2.306492,5.13262 -3.150534,7.81603 0,0 3.559995,-1.70537 3.559995,-1.70537 z" />
    <path
       style="fill:#008080;stroke-width:0.264583"
       id="path979"
       d="m 58.724939,275.59158 c 1.95883,-2.50912 4.270844,-4.71432 6.514648,-6.9629 3.200299,-3.25012 6.725457,-6.14303 10.45972,-8.75346 1.872604,-1.18325 0.958535,-0.63759 2.736027,-1.6473 0,0 -3.601053,1.38242 -3.601053,1.38242 v 0 c -1.739014,1.02169 -0.84278,0.47037 -2.682552,1.66389 -3.698084,2.63677 -7.196498,5.54221 -10.378184,8.78992 -2.300274,2.29052 -4.651115,4.54305 -6.696146,7.0712 0,0 3.64754,-1.54377 3.64754,-1.54377 z" />
    <path
       style="fill:#008080;stroke-width:0.264583"
       id="path981"
       d="m 57.779641,273.76689 c -0.993589,-2.09847 -1.996178,-4.20209 -3.196769,-6.19125 -1.070864,-1.50395 -2.27687,-2.9572 -3.773419,-4.0586 -1.289436,-0.94897 -1.771198,-1.14114 -3.205604,-1.91524 -3.808013,-1.9511 -8.048773,-2.51974 -12.251632,-2.91337 -2.461607,-0.10538 -4.92393,0.0439 -7.381237,0.17662 0,0 -3.097591,2.27887 -3.097591,2.27887 v 0 c 2.456974,-0.16042 4.918252,-0.31778 7.382073,-0.24725 4.166698,0.35054 8.376611,0.87439 12.158768,2.7898 0.562507,0.30276 1.139667,0.57975 1.687526,0.90829 2.070325,1.24148 3.777181,2.93068 5.119132,4.93181 1.2035,1.97061 2.228009,4.0523 3.120173,6.18138 0,0 3.43858,-1.94106 3.43858,-1.94106 z" />
    <path
       style="fill:#008080;stroke-width:0.264583"
       id="path983"
       d="m 69.962455,274.34357 c 1.197721,-1.57382 2.478677,-3.15209 4.118898,-4.2904 0.505556,-0.35087 0.963666,-0.92065 1.577883,-0.95838 0.515014,-0.0316 -0.821365,0.62476 -1.232048,0.93713 4.609771,-1.82089 9.564118,-2.14582 14.425927,-2.76672 1.815002,-0.33359 3.725574,-0.32914 5.507246,-0.85585 0.517372,-0.15295 1.031992,-0.33597 1.505032,-0.59539 4.538757,-2.48911 3.661439,-1.88459 6.292227,-4.17129 2.94823,-3.11596 5.45187,-6.69744 7.27309,-10.58567 0.0729,-0.31456 0.21347,-0.62083 0.21867,-0.94368 0.038,-2.36473 -4.40179,-2.32038 -5.84454,-2.38344 -4.739166,0.0284 -9.461206,0.55176 -14.176247,0.98805 0,0 -3.008517,2.23063 -3.008517,2.23063 v 0 c 4.686983,-0.47641 9.383887,-0.99215 14.100734,-0.99658 1.15292,0.0407 4.49278,0.0197 5.27773,1.21781 0.30057,0.45879 0.0205,1.05968 -0.0876,1.49173 -1.78138,3.85993 -4.26881,7.40354 -7.277097,10.40653 -0.524002,0.4315 -1.953028,0.73273 -1.572004,1.29451 0.382307,0.56367 1.279144,-0.51496 1.819717,-0.92928 0.42346,-0.32456 -0.954019,0.4874 -1.460807,0.65419 -1.778624,0.58539 -3.719308,0.56878 -5.541364,0.91938 -4.874649,0.631 -9.834258,0.95951 -14.491039,2.67295 -1.211593,0.64043 -5.063146,2.4873 -6.868945,3.80881 -1.64923,1.2069 -2.93701,2.84835 -4.168474,4.45566 0,0 3.611568,-1.6007 3.611568,-1.6007 z" />
    <path
       style="fill:#008080;stroke-width:0.264583"
       id="path985"
       d="m 118.93695,266.10032 c -2.7753,-3.01955 -5.23337,-6.31128 -7.4711,-9.74308 -1.54949,-2.45778 -2.84275,-4.92336 -3.70282,-7.69891 -1.10754,-3.92038 -0.91179,-8.02399 -0.67851,-12.04345 0.18718,-3.89646 1.08913,-7.66807 2.27671,-11.36454 0,0 -3.43969,1.62317 -3.43969,1.62317 v 0 c -1.13417,3.72322 -2.01738,7.50905 -2.17429,11.41732 -0.23998,4.07777 -0.48811,8.25182 0.6059,12.2375 0.87722,2.76661 2.26196,5.31227 3.83942,7.74386 2.26418,3.42501 4.75172,6.68637 7.36501,9.85296 0,0 3.37937,-2.02483 3.37937,-2.02483 z" />
    <path
       style="fill:#008080;stroke-width:0.264583"
       id="path987"
       d="m 119.17567,267.16979 c 1.07187,-6.38762 1.99752,-12.80065 2.91397,-19.21239 0.48767,-3.35799 0.88785,-6.72754 1.28901,-10.09662 0,0 -3.32791,1.64922 -3.32791,1.64922 v 0 c -0.35073,3.35328 -0.7168,6.70528 -1.20354,10.04226 -0.91381,6.46701 -1.82415,12.94937 -3.21217,19.33441 0,0 3.54064,-1.71688 3.54064,-1.71688 z" />
    <path
       style="fill:#008080;stroke-width:0.264583"
       id="path989"
       d="m 135.17294,262.72717 c 1.02152,-4.02456 2.4098,-7.95371 4.1331,-11.72934 2.09555,-4.13429 4.5016,-8.09393 6.96305,-12.01689 1.97171,-3.40989 3.77995,-6.91918 5.45225,-10.48512 0.62543,-1.3545 1.12465,-2.75782 1.59277,-4.17204 0,0 -3.51402,1.65278 -3.51402,1.65278 v 0 c -0.44851,1.38929 -0.92718,2.76841 -1.54044,4.09606 -1.67061,3.56823 -3.50002,7.0663 -5.50374,10.4593 -2.41655,3.94584 -4.76402,7.93539 -6.89732,12.04311 -1.694,3.84284 -3.01648,7.82933 -4.26972,11.83536 0,0 3.58407,-1.68322 3.58407,-1.68322 z" />
    <path
       style="fill:#008080;stroke-width:0.264583"
       id="path991"
       d="m 131.73837,258.82635 c -0.32063,-3.86837 -0.2873,-7.76778 -0.76731,-11.62329 -0.10563,-0.84847 -0.26176,-1.6899 -0.39264,-2.53485 -0.86697,-5.13783 -2.48836,-10.1055 -4.0579,-15.06145 -1.1449,-3.49432 -2.11603,-7.0417 -3.35469,-10.50508 -0.39147,-1.21918 -0.20647,-0.58485 -0.54813,-1.90498 0,0 -3.42548,1.85481 -3.42548,1.85481 v 0 c 0.3421,1.35376 0.14979,0.70785 0.56626,1.94089 1.30312,3.42276 2.36228,6.92499 3.49681,10.40589 1.55597,4.94345 3.11735,9.90803 4.00831,15.0234 0.129,0.83763 0.28293,1.67179 0.38698,2.51288 0.47884,3.87079 0.50862,7.78736 0.57682,11.68071 0,0 3.51097,-1.78893 3.51097,-1.78893 z" />
    <path
       style="fill:#008080;stroke-width:0.264583"
       id="path993"
       d="m 147.86209,266.85168 c 1.40631,-6.68749 2.27285,-13.47387 3.29841,-20.22668 0.88321,-6.2925 2.13298,-12.52448 3.15443,-18.79362 0.57047,-3.30107 1.17762,-6.59352 1.92326,-9.8594 0.17512,-1.06585 0.42239,-2.11122 0.6992,-3.15422 0,0 -3.50411,1.67366 -3.50411,1.67366 v 0 c -0.27222,1.0503 -0.52973,2.10238 -0.70513,3.17426 -0.68938,3.25478 -1.22696,6.53754 -1.78571,9.81685 -0.99123,6.24107 -2.14704,12.45659 -2.99586,18.72037 -1.00465,6.81847 -1.91059,13.67866 -3.63122,20.36262 0,0 3.54673,-1.71384 3.54673,-1.71384 z" />
    <path
       style="fill:#008080;stroke-width:0.264583"
       id="path995"
       d="m 160.96363,260.78501 c 0.93974,-5.53115 2.38639,-10.95949 3.83713,-16.37366 1.84037,-6.48793 3.73038,-12.96153 5.70241,-19.41063 0.20557,-0.68164 0.41113,-1.36328 0.61669,-2.04492 0,0 -3.42687,1.62494 -3.42687,1.62494 v 0 c -0.19106,0.67397 -0.38211,1.34793 -0.57317,2.0219 -1.8822,6.45005 -3.76549,12.89981 -5.58896,19.36684 -1.51056,5.47067 -2.96307,10.95753 -4.08837,16.52295 0,0 3.52114,-1.70742 3.52114,-1.70742 z" />
    <path
       style="fill:#008080;stroke-width:0.264583"
       id="path997"
       d="m 177.98371,254.64781 c 1.1044,-6.17548 3.23197,-12.12411 5.3513,-18.01205 1.22543,-3.28783 2.51841,-6.54793 3.85333,-9.79245 0,0 -3.33957,1.54214 -3.33957,1.54214 v 0 c -1.31065,3.25943 -2.5872,6.53164 -3.85036,9.8098 -2.08016,5.97836 -4.18611,11.98312 -5.53328,18.1765 0,0 3.51858,-1.72394 3.51858,-1.72394 z" />
    <path
       style="fill:#008080;stroke-width:0.264583"
       id="path999"
       d="m 179.36451,270.37588 c -2.46936,-4.75676 -4.86999,-9.54946 -7.37698,-14.28644 -2.79647,-5.29815 -5.60731,-10.59167 -8.16306,-16.01131 0,0 -3.29087,1.86825 -3.29087,1.86825 v 0 c 2.66783,5.36727 5.49629,10.65275 8.25473,15.97363 2.48531,4.73958 4.94658,9.50301 7.14506,14.38291 0,0 3.43112,-1.92704 3.43112,-1.92704 z" />
    <path
       style="fill:#008080;stroke-width:0.264583"
       id="path1001"
       d="m 178.02842,265.14197 c 1.16641,-5.66916 2.02546,-11.39461 3.17575,-17.06721 1.15589,-5.70021 1.59017,-7.29897 2.92639,-12.8657 1.75865,-6.82295 0.88708,-3.58658 2.59526,-9.71433 0,0 -3.21443,1.53276 -3.21443,1.53276 v 0 c -1.57823,6.08203 -0.76552,2.86848 -2.42424,9.64414 -1.24226,5.31755 -1.77043,7.44923 -2.90986,12.87269 -1.21219,5.76975 -2.23642,11.58343 -3.67001,17.30509 0,0 3.52114,-1.70744 3.52114,-1.70744 z" />
    <path
       style="fill:#008080;stroke-width:0.264583"
       id="path1003"
       d="m 193.98364,266.62602 c 1.66188,-6.47448 3.20609,-12.97848 4.80348,-19.46926 1.11496,-4.36933 0.57728,-2.27642 1.6114,-6.27913 0,0 -3.34783,1.6035 -3.34783,1.6035 v 0 c -0.96547,3.97554 -0.45721,1.89519 -1.52646,6.24064 -1.59846,6.56115 -3.08769,13.15476 -5.10792,19.60383 0,0 3.56733,-1.69958 3.56733,-1.69958 z" />
    <path
       style="fill:#008080;stroke-width:0.264583"
       id="path1005"
       d="m 186.47962,275.35708 c -3.33431,-5.74598 -6.06385,-11.81859 -9.03779,-17.75479 -3.04029,-6.00568 -5.65816,-12.20668 -8.33237,-18.37951 -0.28553,-0.63185 -0.57106,-1.2637 -0.85659,-1.89554 0,0 -3.30484,1.86944 -3.30484,1.86944 v 0 c 0.29798,0.62202 0.59596,1.24404 0.89394,1.86606 2.76523,6.13427 5.42622,12.31729 8.47333,18.32046 2.9917,5.94361 5.70968,12.01934 8.76562,17.93106 0,0 3.3987,-1.95718 3.3987,-1.95718 z" />
    <path
       style="fill:#008080;stroke-width:0.264583"
       id="path1007"
       d="m 156.44811,279.93125 c 3.54945,-6.4929 7.27062,-12.89042 10.85417,-19.36508 0,0 -3.33756,1.4952 -3.33756,1.4952 v 0 c -3.55448,6.5758 -7.27675,13.056 -11.09936,19.4795 0,0 3.58275,-1.60962 3.58275,-1.60962 z" />
    <path
       style="fill:#008080;stroke-width:0.264583"
       id="path1009"
       d="m 151.04485,275.42074 c -3.0977,-7.31258 -5.68829,-14.82335 -8.19095,-22.3557 -1.19601,-3.84421 -2.59095,-7.62138 -3.90521,-11.42563 0,0 -3.29327,1.82236 -3.29327,1.82236 v 0 c 1.3803,3.76994 2.80093,7.52645 4.03082,11.34944 2.58301,7.52978 5.34726,14.99552 7.92623,22.52625 0,0 3.43238,-1.91672 3.43238,-1.91672 z" />
    <path
       style="fill:#008080;stroke-width:0.264583"
       id="path1011"
       d="m 136.47309,283.32223 c -2.06388,-4.64261 -3.64943,-9.47277 -5.27375,-14.28006 -3.20021,-9.47124 0.0289,0.13226 -3.02078,-8.95127 -1.7564,-4.89335 -3.04757,-9.95362 -4.94712,-14.79595 -0.10452,-0.20031 -0.20904,-0.40063 -0.31356,-0.60095 0,0 -3.41154,1.96256 -3.41154,1.96256 v 0 c 0.10822,0.18181 0.21644,0.36362 0.32465,0.54543 2.12968,4.71626 3.44154,9.76112 5.23681,14.60428 2.67521,7.80602 5.22306,15.65502 7.98311,23.43152 0,0 3.42218,-1.91556 3.42218,-1.91556 z" />
    <path
       style="fill:#008080;stroke-width:0.264583"
       id="path1013"
       d="m 112.65784,276.20629 c -1.41721,-4.47135 -2.64717,-8.99689 -4.13475,-13.44696 -1.06718,-3.19247 -2.26178,-6.43804 -3.40436,-9.60175 -1.44387,-4.10359 -2.99068,-8.16848 -4.6032,-12.20824 -0.671941,-1.68338 -1.252215,-3.21262 -2.045753,-4.83364 -0.326422,-0.66681 -0.699775,-1.3096 -1.049663,-1.9644 -0.375274,-0.57028 -0.750549,-1.14056 -1.125823,-1.71084 0,0 -3.27982,1.9214 -3.27982,1.9214 v 0 c 0.37461,0.55716 0.74922,1.11433 1.123833,1.67149 3.257339,5.98586 5.559886,12.44056 7.930646,18.81257 0.84478,2.38379 2.55457,7.15752 3.3559,9.61294 1.46428,4.48676 2.6579,9.04887 3.77524,13.63222 0,0 3.45775,-1.88479 3.45775,-1.88479 z" />
    <path
       style="fill:#008080;stroke-width:0.264583"
       id="path1015"
       d="M 84.0449,266.00049 C 79.024347,255.42034 73.391682,245.13704 67.836364,234.8304 c -4.365003,-7.85379 -8.503147,-15.83581 -12.98806,-23.62268 0,0 -3.247459,1.8807 -3.247459,1.8807 v 0 c 4.703699,7.64917 8.947642,15.57337 13.376204,23.38195 3.43391,6.34886 6.862524,12.69727 10.088946,19.15525 1.727165,3.45708 3.053016,6.17203 4.538485,9.64616 0.371811,0.86958 0.697865,1.75799 1.046795,2.63699 0,0 3.393625,-1.90828 3.393625,-1.90828 z" />
    <path
       style="fill:#008080;stroke-width:0.264583"
       id="path1017"
       d="m 82.78924,246.9004 c 1.869898,-3.5043 4.005043,-6.85571 6.013228,-10.28041 1.861341,-3.21109 3.902578,-6.31083 5.892893,-9.44132 0.193749,-0.32608 0.401563,-0.6442 0.581244,-0.97823 0.440471,-0.81885 1.200269,-2.47231 1.549218,-3.23199 1.170919,-2.54916 2.256205,-5.13072 3.335457,-7.71971 0.37153,-0.91046 0.74307,-1.82092 1.1146,-2.73138 0,0 -3.369938,1.55619 -3.369938,1.55619 v 0 c -0.367747,0.90719 -0.735492,1.81438 -1.103239,2.72158 -1.714608,4.05586 -3.417234,8.15156 -5.661697,11.94918 -1.957617,3.1216 -3.910105,6.24666 -5.797105,9.41184 -2.042171,3.44836 -4.14225,6.86222 -6.143567,10.3349 0,0 3.588906,-1.59065 3.588906,-1.59065 z" />
    <path
       style="fill:#008080;stroke-width:0.264583"
       id="path1019"
       d="m 82.059517,221.32171 c -2.054257,-4.44053 -4.239334,-8.81599 -6.252665,-13.27666 -2.13786,-4.64139 -3.939805,-9.42335 -5.696349,-14.21858 -0.828784,-2.26463 -0.422717,-1.18269 -1.213946,-3.24743 0,0 -3.358541,1.87306 -3.358541,1.87306 v 0 c 0.823989,2.03895 0.402333,0.96839 1.259432,3.21388 1.805721,4.78185 3.622395,9.5638 5.779498,14.20146 0.386072,0.8526 2.090232,4.62288 2.480998,5.45835 1.225301,2.61974 2.575581,5.19112 3.569192,7.91265 0,0 3.432381,-1.91673 3.432381,-1.91673 z" />
    <path
       style="fill:#008080;stroke-width:0.264583"
       id="path1021"
       d="m 86.626519,218.15431 c 2.279489,-3.59437 4.716841,-7.08571 7.052998,-10.64399 1.479576,-2.09585 2.742795,-4.34383 4.247322,-6.42143 0,0 -3.605636,1.57096 -3.605636,1.57096 v 0 c -1.375373,2.10243 -2.648008,4.27212 -4.062061,6.3502 -2.366348,3.61703 -4.857234,7.14724 -7.255758,10.74221 0,0 3.623135,-1.59795 3.623135,-1.59795 z" />
    <path
       style="fill:#008080;stroke-width:0.264583"
       id="path1023"
       d="m 59.538052,266.56315 c -0.373597,-0.65137 -0.772324,-1.28899 -1.120794,-1.95418 -2.53633,-4.84146 -4.69628,-9.87707 -6.977626,-14.84011 -3.027452,-6.58616 -2.369621,-5.14934 -5.439836,-11.61083 -3.442996,-6.62044 -1.711621,-3.4583 -5.167743,-9.50082 0,0 -3.037541,1.75505 -3.037541,1.75505 v 0 c 3.534346,5.97445 1.770218,2.84199 5.26239,9.41422 2.56513,5.35431 2.977396,6.13762 5.442807,11.60047 2.256348,4.99961 4.374909,10.06083 6.638489,15.05701 0.316566,0.69872 0.658934,1.38547 0.988398,2.0782 0,0 3.411456,-1.99901 3.411456,-1.99901 z" />
    <path
       style="fill:#008080;stroke-width:0.264583"
       id="path1025"
       d="m 64.967966,254.9495 c 0.444238,-8.31668 2.316379,-16.4627 4.218617,-24.54279 1.354206,-5.77345 3.144136,-11.4219 5.198869,-16.97944 0,0 -3.411805,1.59333 -3.411805,1.59333 v 0 c -1.918337,5.55843 -3.658443,11.17659 -4.965139,16.91499 -1.879361,8.18371 -3.714585,16.40306 -4.537535,24.77376 0,0 3.496993,-1.75985 3.496993,-1.75985 z" />
    <path
       style="fill:#008080;stroke-width:0.264583"
       id="path1027"
       d="m 45.143565,262.27209 c -4.338831,-6.00258 -8.249737,-12.30038 -12.080388,-18.63471 -1.765207,-3.05636 -3.390657,-6.18939 -5.022913,-9.31763 0,0 -3.218342,1.84409 -3.218342,1.84409 v 0 c 1.696903,3.09986 3.376102,6.20993 5.148752,9.26757 3.838258,6.33385 7.823457,12.57584 11.79581,18.82603 0,0 3.377081,-1.98535 3.377081,-1.98535 z" />
    <path
       style="fill:#008080;stroke-width:0.264583"
       id="path1029"
       d="m 42.324326,245.10002 c 3.635899,-11.83561 8.397211,-23.28919 13.25064,-34.667 0,0 -3.039088,1.39896 -3.039088,1.39896 v 0 c -4.797931,11.55993 -9.558547,23.1446 -13.735127,34.94677 0,0 3.523575,-1.67873 3.523575,-1.67873 z" />
    <path
       style="fill:#008080;stroke-width:0.264583"
       id="path1031"
       d="M 31.96921,227.51474 C 26.647476,222.39249 21.424817,217.1753 16.297804,211.85849 12.882663,208.16583 9.5549872,204.38985 6.3110144,200.5459 c 0,0 -3.278908,1.97937 -3.278908,1.97937 v 0 c 3.3936194,3.7441 6.7910575,7.48543 10.2349986,11.1834 5.120852,5.2834 10.329928,10.4839 15.358203,15.85521 0,0 3.343902,-2.04914 3.343902,-2.04914 z" />
    <path
       style="fill:#008080;stroke-width:0.264583"
       id="path1033"
       d="m 29.132789,214.63991 c 4.936561,-7.57066 10.347574,-14.81677 15.861911,-21.97254 0,0 -3.31474,1.42549 -3.31474,1.42549 v 0 c -5.477258,7.27443 -10.896518,14.595 -16.065742,22.09286 0,0 3.518571,-1.54581 3.518571,-1.54581 z" />
    <path
       style="fill:#008080;stroke-width:0.264583"
       id="path1035"
       d="m 31.082572,262.57255 c -2.306796,-4.38893 -4.666359,-8.75181 -7.081532,-13.08243 -1.470138,-2.78841 -3.351166,-5.31785 -5.058902,-7.95635 -1.283324,-2.09935 -2.711068,-4.09661 -4.133694,-6.10224 -2.505195,-3.34988 -4.697311,-6.89985 -6.723912,-10.55395 0,0 -3.2320311,1.85857 -3.2320311,1.85857 v 0 c 2.0308879,3.66326 4.2125502,7.23294 6.6463061,10.64547 1.399883,2.01444 2.783568,4.0373 4.075884,6.12276 1.744954,2.60653 3.679882,5.08911 5.174691,7.85933 2.465969,4.29544 4.83407,8.65787 6.931524,13.1457 0,0 3.401666,-1.93686 3.401666,-1.93686 z" />
    <path
       style="fill:#008080;stroke-width:0.264583"
       id="path1037"
       d="m 19.045369,267.11015 c -1.3053,-1.66158 -0.630373,-0.7889 -2.02111,-2.62079 0,0 -3.28925,1.95124 -3.28925,1.95124 v 0 c 1.360256,1.8493 0.717478,0.95504 1.932915,2.67946 0,0 3.377445,-2.00991 3.377445,-2.00991 z" />
    <path
       style="fill:#008080;stroke-width:0.264583"
       id="path1039"
       d="m 31.524318,288.51405 c 0.04476,-5.02079 1.06399,-10.02642 2.541884,-14.81249 0.440605,-1.42687 0.980413,-2.8212 1.47062,-4.23183 3.010196,-7.73803 7.497704,-14.76191 12.318479,-21.47889 0,0 -3.420946,1.48616 -3.420946,1.48616 v 0 c -4.689187,6.77414 -9.119312,13.79458 -12.121894,21.50247 -0.489701,1.41936 -1.026236,2.82345 -1.469104,4.25813 -1.506495,4.88029 -2.588067,9.95135 -2.822442,15.06151 0,0 3.503403,-1.78506 3.503403,-1.78506 z" />
    <path
       style="fill:#008080;stroke-width:0.264583"
       id="path1041"
       d="m 26.439247,287.47444 c -5.051068,-6.66451 -9.082022,-14.00545 -13.113613,-21.30872 -2.422713,-4.42481 -4.6579341,-8.94843 -6.8125841,-13.50852 0,0 -3.2430727,1.84256 -3.2430727,1.84256 v 0 c 2.2729078,4.5048 4.5781623,8.99508 7.0251428,13.40838 2.508466,4.5171 4.987543,9.0615 7.632775,13.50076 1.795866,3.01387 2.157217,3.44813 3.958405,6.18916 0.404549,0.61566 0.801885,1.236 1.202828,1.85401 0,0 3.350119,-1.97763 3.350119,-1.97763 z" />
    <path
       style="fill:#008080;stroke-width:0.264583"
       id="path1043"
       d="m 65.325219,277.61962 c 2.146232,-6.63171 4.304552,-13.26126 6.543876,-19.86229 0,0 -3.338996,1.56907 -3.338996,1.56907 v 0 c -2.151351,6.67698 -4.305292,13.35223 -6.721488,19.93982 0,0 3.516608,-1.6466 3.516608,-1.6466 z" />
    <path
       style="fill:#008080;stroke-width:0.264583"
       id="path1045"
       d="m 48.577624,277.20774 c -5.299652,-6.79466 -9.711026,-14.20145 -13.994101,-21.65969 -1.89901,-3.31855 -3.918918,-6.57273 -6.175798,-9.66177 -0.995508,-1.36257 -2.067078,-2.68088 -3.117583,-4.00062 -2.063988,-2.53672 -1.04701,-1.29732 -3.049755,-3.71917 0,0 -3.235575,1.94278 -3.235575,1.94278 v 0 c 2.021003,2.40324 0.999037,1.17018 3.063728,3.70097 3.429354,4.30176 6.637886,8.7719 9.378975,13.55071 4.402518,7.39476 8.894725,14.74107 13.83035,21.796 0,0 3.299759,-1.94921 3.299759,-1.94921 z" />
    <path
       style="fill:#008080;stroke-width:0.264583"
       id="path1047"
       d="m 71.308086,282.93226 c 1.989071,-5.51262 3.885488,-11.06485 6.084467,-16.49904 0.659005,-1.62857 1.365596,-3.23745 2.048393,-4.85617 1.958004,-4.41591 4.029893,-8.78417 6.275234,-13.06189 1.202407,-2.29078 2.502131,-4.52975 3.750747,-6.79531 0,0 -3.486753,1.56524 -3.486753,1.56524 v 0 c -1.171435,2.24047 -2.394202,4.45435 -3.536456,6.71008 -2.172186,4.28963 -4.204753,8.64954 -6.16735,13.03842 -0.682805,1.62202 -1.38331,3.23667 -2.048412,4.86603 -2.258533,5.53288 -4.260323,11.16639 -6.491777,16.71013 0,0 3.571907,-1.67749 3.571907,-1.67749 z" />
    <path
       style="fill:#008080;stroke-width:0.264583"
       id="path1049"
       d="m 92.582747,283.2962 c 0.04961,-0.48535 0.07837,-0.97333 0.148842,-1.45611 0.250346,-1.71503 0.713578,-3.94118 1.055142,-5.58819 0.721953,-3.4812 1.534904,-6.92684 2.420999,-10.36949 1.956977,-7.44179 5.02345,-14.50605 8.23151,-21.47664 0,0 -3.30992,1.51227 -3.30992,1.51227 v 0 c -3.149133,7.0137 -6.284935,14.07277 -8.215465,21.53999 -1.481937,5.81914 -2.855783,11.6814 -3.869402,17.6008 0,0 3.538294,-1.76263 3.538294,-1.76263 z" />
    <path
       style="fill:#008080;stroke-width:0.264583"
       id="path1051"
       d="m 109.05938,278.82688 c 1.75537,-4.40465 3.4988,-8.8265 5.62962,-13.06761 1.54783,-3.08074 2.51102,-4.65685 4.22133,-7.62572 3.34161,-5.55909 6.95983,-10.94601 10.44119,-16.41849 2.09986,-3.26601 4.39854,-6.39465 6.60617,-9.58652 0,0 -3.51842,1.53423 -3.51842,1.53423 v 0 c -2.1552,3.18001 -4.40772,6.29369 -6.46582,9.53939 -3.45446,5.4569 -7.11124,10.78906 -10.33446,16.38914 -1.62261,2.84598 -2.73418,4.71395 -4.21843,7.65525 -2.17016,4.30053 -3.9211,8.79072 -5.8593,13.19588 0,0 3.49812,-1.61555 3.49812,-1.61555 z" />
    <path
       style="fill:#008080;stroke-width:0.264583"
       id="path1053"
       d="m 100.51533,232.36393 c 0.048,-4.54264 0.52418,-9.06893 1.42464,-13.52214 0.26717,-1.32128 0.59503,-2.62956 0.89255,-3.94434 1.80254,-6.83234 4.12785,-13.55988 7.12003,-19.96809 0.44961,-0.96292 0.94621,-1.90319 1.41931,-2.85479 0.41304,-0.76824 0.82608,-1.53649 1.23911,-2.30474 0,0 -3.41595,1.53672 -3.41595,1.53672 v 0 c -0.39441,0.76408 -0.78883,1.52815 -1.18324,2.29223 -3.50831,7.33646 -6.38192,14.98596 -8.42526,22.86251 -0.299813,1.32196 -0.628063,2.6378 -0.899444,3.96589 -0.924811,4.52589 -1.434528,9.11828 -1.686512,13.72761 0,0 3.514766,-1.79086 3.514766,-1.79086 z" />
    <path
       style="fill:#008080;stroke-width:0.264583"
       id="path1055"
       d="m 116.75117,224.22418 c 0.96805,-1.95133 2.08858,-3.86944 3.5021,-5.53759 1.26549,-1.49345 2.19935,-2.30399 3.63188,-3.66694 4.11547,-3.65474 8.12003,-7.42462 12.07721,-11.24903 1.47023,-1.68101 2.78918,-3.48229 4.10265,-5.28532 0,0 -3.48199,1.50616 -3.48199,1.50616 v 0 c -1.30807,1.79367 -2.61821,3.59011 -4.12607,5.22524 -3.92358,3.83307 -7.92201,7.58121 -12.02392,11.22381 -1.4437,1.38712 -2.40574,2.23185 -3.68058,3.75579 -1.4369,1.71767 -2.53154,3.70252 -3.60232,5.65711 0,0 3.60104,-1.62923 3.60104,-1.62923 z" />
    <path
       style="fill:#008080;stroke-width:0.264583"
       id="path1057"
       d="m 136.43666,217.3744 c -4.56811,-3.34838 -9.11805,-6.72156 -13.69858,-10.0531 -2.3267,-1.66366 -4.378,-3.65394 -6.33825,-5.72462 0,0 -3.26223,1.98969 -3.26223,1.98969 v 0 c 2.00717,2.067 4.07681,4.08502 6.45156,5.73546 4.59302,3.26529 9.16667,6.56591 13.52944,10.13673 0,0 3.31806,-2.08416 3.31806,-2.08416 z" />
    <path
       style="fill:#008080;stroke-width:0.264583"
       id="path1059"
       d="m 150.9348,224.09396 c 2.27725,-6.96601 4.69195,-13.88608 7.02942,-20.83201 1.36329,-4.06884 2.81091,-8.10718 4.33711,-12.11742 0,0 -3.39316,1.57887 -3.39316,1.57887 v 0 c -1.464,4.0008 -2.87836,8.01928 -4.20317,12.06865 -2.33959,7.02022 -4.73452,14.02292 -7.30561,20.96227 0,0 3.53541,-1.66036 3.53541,-1.66036 z" />
    <path
       style="fill:#008080;stroke-width:0.264583"
       id="path1061"
       d="m 179.81666,214.66196 c -4.95939,-3.67232 -9.94223,-7.31604 -14.9012,-10.99051 -5.12389,-3.80444 -10.22012,-7.64993 -14.94585,-11.94484 -1.27688,-1.16956 -2.42017,-2.46996 -3.57575,-3.75573 0,0 -3.3009,2.00363 -3.3009,2.00363 v 0 c 1.19614,1.27373 2.37222,2.56951 3.67399,3.73868 4.8027,4.25226 9.95014,8.07689 15.10901,11.88311 4.93203,3.65763 9.88692,7.2885 14.62329,11.19972 0,0 3.31741,-2.13406 3.31741,-2.13406 z" />
    <path
       style="fill:#008080;stroke-width:0.264583"
       id="path1063"
       d="m 186.43535,216.99574 c 1.92886,-6.89238 4.4951,-13.5953 7.02682,-20.2847 1.8398,-4.9544 3.70595,-9.89892 5.53534,-14.85718 0,0 -3.3427,1.55979 -3.3427,1.55979 v 0 c -1.74952,4.95618 -3.5766,9.88357 -5.42937,14.80207 -2.55076,6.78061 -5.12189,13.56175 -7.33651,20.46103 0,0 3.54642,-1.68101 3.54642,-1.68101 z" />
    <path
       style="fill:#008080;stroke-width:0.264583"
       id="path1065"
       d="m 200.58319,223.21337 c -2.97891,-3.3459 -5.91723,-6.74226 -8.53565,-10.38247 -0.60968,-0.84759 -1.18098,-1.72214 -1.77146,-2.58322 -2.31416,-3.23789 -4.04633,-6.81972 -5.73453,-10.40681 -1.05389,-2.0351 -2.26452,-3.97979 -3.3621,-5.99129 -1.85249,-3.57794 -3.65713,-7.17547 -5.59301,-10.70982 0,0 -3.24476,1.86439 -3.24476,1.86439 v 0 c 1.94891,3.52931 3.73037,7.13645 5.49151,10.76224 1.0555,2.02913 2.2479,3.97603 3.33604,5.98738 1.74992,3.57768 3.59185,7.12348 5.9236,10.36539 0.59587,0.86388 1.17448,1.73992 1.7876,2.59164 2.61676,3.63508 5.5483,7.02197 8.33035,10.52737 0,0 3.37241,-2.0248 3.37241,-2.0248 z" />
    <path
       style="fill:#008080;stroke-width:0.264583"
       id="path1067"
       d="m 180.49524,229.39486 c 0.92081,-7.9232 3.20442,-15.61609 5.60577,-23.19744 0.93775,-3.11889 2.25986,-6.09862 3.54807,-9.08305 0,0 -3.47162,1.59767 -3.47162,1.59767 v 0 c -1.22556,2.97354 -2.50038,5.93756 -3.36991,9.04099 -2.31308,7.67929 -4.53917,15.42584 -5.77082,23.3635 0,0 3.45851,-1.72167 3.45851,-1.72167 z" />
    <path
       style="fill:#008080;stroke-width:0.264583"
       id="path1069"
       d="m 194.65623,240.78658 c 0.36408,-2.68265 0.54174,-5.3856 0.90728,-8.06844 0.37411,-2.74578 0.64161,-4.12458 1.12282,-6.88902 0.95104,-5.34459 1.93807,-10.68193 2.85124,-16.03321 0,0 -3.34575,1.63621 -3.34575,1.63621 v 0 c -0.85622,5.34398 -1.8539,10.66256 -2.78087,15.99448 -0.43221,2.41829 -0.82747,4.51624 -1.18358,6.93981 -0.39881,2.71426 -0.60857,5.45644 -1.11819,8.1543 0,0 3.54705,-1.73413 3.54705,-1.73413 z" />
    <path
       style="fill:#008080;stroke-width:0.264583"
       id="path1071"
       d="m 202.33813,258.16591 c -4.42672,-4.12212 -8.42286,-8.67482 -12.27562,-13.3289 -1.33975,-1.68477 -2.70771,-3.345 -4.11587,-4.97272 0,0 -3.28269,1.98559 -3.28269,1.98559 v 0 c 1.45649,1.58928 2.86929,3.21586 4.22593,4.89204 1.18281,1.40923 2.90485,3.48113 4.11623,4.83912 2.61734,2.93412 5.35346,5.76314 7.99368,8.67666 0,0 3.33834,-2.09179 3.33834,-2.09179 z" />
    <path
       style="fill:#fff6d5;stroke-width:0.264583"
       id="path1470"
       d="m 23.720524,32.155265 c 3.335079,-1.679324 6.990989,-2.769246 10.722741,-3.056795 0.943639,-0.07271 1.892376,-0.04328 2.838566,-0.06492 0.920406,0.115837 1.847429,0.187648 2.761218,0.347506 1.715715,0.300144 2.895227,0.66947 4.512112,1.223095 0.505976,0.173247 2.067986,0.824495 2.730558,0.899067 0.326752,0.03678 0.655579,-0.05191 0.983371,-0.07786 1.453166,-1.04657 3.043513,-1.925143 4.359503,-3.139713 0.351488,-0.3244 1.872046,-3.558317 2.039929,-3.890453 0.337106,-0.666918 0.658736,-1.343189 1.03836,-1.986854 0.775222,-1.314411 1.457159,-2.144711 2.367733,-3.343789 0.950685,-1.046796 1.095674,-1.297309 2.152867,-2.14265 0.293835,-0.234954 1.234567,-0.860356 0.921596,-0.65157 -0.758695,0.50613 -1.856941,0.725108 -2.25897,1.543741 -0.219371,0.446698 1.002514,-0.06864 1.492888,0.01619 0.696116,0.120428 1.356278,0.39602 2.034416,0.59403 3.319938,1.236038 6.168038,3.345277 9.098184,5.273848 1.890385,0.954246 2.252512,-0.09824 4.685559,-1.957818 0.222819,-0.170302 0.178102,-0.533136 0.296463,-0.787384 0.525021,-1.127789 0.676741,-1.207312 1.470742,-2.283275 0.777306,-0.720561 2.168041,-2.140308 3.180768,-2.515844 0.508053,-0.188395 -1.70698,0.701716 -1.267169,1.018223 0.617233,0.444187 1.500738,-0.294686 2.261137,-0.30292 2.040893,-0.0221 2.849266,0.385468 4.775354,0.969248 4.04146,1.59491 6.640388,4.53407 9.583279,7.52672 0.419894,0.360244 0.759685,0.774406 1.346028,0.858125 1.062059,0.15164 2.166713,-0.469507 3.140023,-0.778186 0.32977,-0.104582 0.66605,-0.187391 0.99907,-0.281087 0.27394,-0.03751 0.54546,-0.121326 0.82181,-0.112528 1.34397,0.04279 1.91785,1.331426 2.21298,2.437933 -0.0193,0.251945 0.0152,0.513948 -0.0579,0.755836 -0.44391,1.4694 -1.81148,2.573168 -3.01229,3.392196 -0.68161,0.464902 -1.33979,1.015151 -2.124462,1.27013 -0.184709,0.06002 0.0057,-0.388388 0.0086,-0.582581 -8.950431,2.661711 -18.301578,2.033241 -27.397585,0.533477 -1.685473,-0.277903 -3.356036,-0.639689 -5.034055,-0.959536 -2.414072,-0.489519 -4.800195,-1.108789 -7.211846,-1.609553 -0.902928,-0.187489 -2.800411,-0.633584 -3.859773,-0.460451 -0.378823,0.06191 -0.73886,0.246504 -1.051825,0.468749 -1.339474,0.951198 -2.588564,2.023665 -3.882848,3.035498 -0.549068,1.349947 -0.225872,3.014898 -1.054092,4.265356 -0.67637,1.021188 -1.212252,1.120222 -2.322401,1.760371 0.249153,-0.331211 1.15678,-0.928566 0.747459,-0.993632 -1.011325,-0.160761 -1.993138,0.482523 -3.005799,0.634642 -1.070438,0.160798 -2.151711,0.257403 -3.233214,0.302562 -3.161644,0.132022 -6.272866,-0.262681 -9.400296,-0.64897 -1.677607,-0.191802 -3.345654,-0.520465 -5.040715,-0.506219 -0.837459,0.007 -0.958554,0.133982 -1.825972,0.01191 -0.411906,-0.05797 -0.812458,-0.178948 -1.218686,-0.268423 -2.001133,-0.645104 -3.81355,-1.74181 -5.528618,-2.938293 -0.545417,-0.380497 -1.884445,-1.338312 -2.35534,-2.000713 -0.06478,-0.09113 0.0025,-0.223602 0.0038,-0.335404 -0.843834,0.70535 -2.182769,1.072996 -2.531502,2.11605 -0.183491,0.548815 1.130039,0.25272 1.686862,0.41025 2.558048,0.723701 5.051316,1.678389 7.585134,2.481252 0.908789,0.184012 2.238354,0.802018 3.15877,0.233484 3.698915,-2.284791 3.20838,-0.985851 3.74554,-2.777898 0.0081,-0.05512 0.09562,-0.718716 0.145187,-0.799356 0.06206,-0.10096 0.377338,-0.286406 0.278691,-0.220737 -0.857843,0.571085 -1.879028,0.961591 -2.557177,1.737575 -0.271579,0.310758 0.810996,-0.156872 1.220515,-0.208077 0.527916,-0.06601 1.059754,-0.09553 1.589633,-0.14329 1.408721,-0.09945 2.8272,-0.104743 4.22888,-0.294878 0.287335,-0.03898 1.163823,-0.183647 1.47895,-0.352801 1.270616,-0.682043 2.502998,-1.433041 3.754498,-2.149559 0.06432,-0.05741 0.128635,-0.114814 0.19295,-0.17222 -1.065234,0.650496 -2.212827,1.182187 -3.195701,1.95149 -0.127601,0.09987 0.29637,0.131471 0.440925,0.204692 0.220523,0.111696 0.436301,0.232526 0.653886,0.34984 0.208873,0.112617 0.428864,0.47281 0.625481,0.33995 1.093734,-0.739064 1.923597,-1.808221 2.885395,-2.712331 -1.467792,-1.374519 -2.89809,-2.881456 -4.623816,-3.944837 -0.234879,-0.144733 -0.488969,-0.457936 -0.746178,-0.358138 -1.31993,0.512138 -2.467438,1.389148 -3.701158,2.083724 0.513236,1.99621 1.636394,3.095178 3.334887,4.148431 0.478115,0.215249 0.866907,0.448506 1.398873,0.487749 0.183605,0.01355 0.389716,0.0304 0.548791,-0.06228 1.348116,-0.785431 2.687344,-1.599478 3.927793,-2.545839 0.08326,-0.06352 1.021484,-1.697488 1.05937,-1.762641 0.243451,-0.26294 1.052346,-0.946068 0.730353,-0.788821 -0.754403,0.368416 -1.734873,0.669361 -2.065753,1.440966 -0.207438,0.483745 1.032555,-0.22611 1.558002,-0.256897 1.70756,-0.100045 3.393324,0.306837 5.045477,0.665374 1.069367,0.199546 2.106367,0.652036 3.206049,0.691991 2.171967,0.07892 4.070749,-1.569453 5.432737,-3.138821 0.12664,-0.154567 1.092655,-1.341752 1.257805,-1.512755 0.201412,-0.208545 0.907082,-0.71002 0.647674,-0.580546 -6.563228,3.275766 -2.023986,1.26606 -1.50001,1.12296 0.35465,-0.09686 0.724365,-0.126216 1.086548,-0.189325 3.174426,-0.134215 3.972642,0.05639 6.963762,-2.571187 0.220604,-0.193792 -0.03164,-0.586418 -0.04746,-0.879627 -0.820007,-2.78913 -1.583524,-5.63547 -2.886636,-8.247076 -1.016418,-1.456333 -0.386191,-0.806135 -3.943773,1.557269 -0.153771,0.102153 -0.01625,0.368859 -0.02416,0.553298 -0.03076,0.717771 0.02484,1.409461 0.0854,2.125183 -0.04474,0.840733 0.427733,1.910005 0.008,2.715662 -0.06022,0.11558 -0.38267,0.350192 -0.272823,0.280059 0.905325,-0.578013 1.777942,-1.205724 2.666913,-1.808586 -2.568289,0.260935 -5.107974,-0.405855 -7.672512,-0.388761 -1.885706,0.399854 -1.492763,0.240718 -4.288417,2.472181 -0.155308,0.123964 -0.03244,0.398544 -0.01056,0.596048 0.06148,0.554754 0.329761,0.979891 0.653246,1.412269 1.430176,1.28365 3.547367,-1.223079 4.51612,-1.89061 0.120613,-0.08311 0.110657,-0.271722 0.178461,-0.401559 0.07272,-0.139252 0.161563,-0.269474 0.242345,-0.404211 0.09537,-0.123616 0.172218,-0.264065 0.286124,-0.370849 0.121396,-0.113807 0.552158,-0.371492 0.411271,-0.282948 -0.927095,0.582656 -1.993863,0.993283 -2.770209,1.765478 -0.220112,0.218935 0.623464,0.011 0.929034,0.06586 0.950039,0.170559 1.333622,0.399449 2.22214,0.783257 2.000994,0.888316 3.389114,2.59139 4.989423,4.012385 1.252185,0.840137 1.860843,1.369571 3.402123,-2.382512 0.298392,-0.726404 -0.861089,-1.313693 -1.275855,-1.980528 -1.68501,-2.709053 -3.249197,-5.479328 -4.77507,-8.279894 -0.369951,-0.722304 -0.746726,-1.441154 -1.109856,-2.166912 -0.26166,-0.522958 -0.522502,-1.046615 -0.764392,-1.579005 -0.14932,-0.328648 -0.283128,-0.664422 -0.408673,-1.002867 -0.04068,-0.109662 0.01408,-0.394235 -0.08921,-0.33936 -3.732731,1.983041 -3.913421,1.022511 -3.08115,2.83462 1.634299,3.446542 3.594648,6.728387 5.523603,10.015712 0.691105,1.035581 1.279393,2.191719 2.182241,3.072583 0.136086,0.132771 0.278265,0.412462 0.455409,0.343411 3.807224,-1.484106 3.397744,-0.742468 4.033379,-2.639134 0.203486,-0.717933 0.304718,-1.467336 0.529146,-2.179648 0.05014,-0.159138 0.336211,-0.539882 0.187576,-0.464074 -3.645995,1.859587 -4.126846,1.571893 -2.582735,2.073334 2.511906,1.992031 4.520514,4.52361 6.465932,7.049433 0.401468,0.279869 0.541827,0.795616 0.888963,1.123609 0.08087,0.07641 -0.272933,-0.213511 -0.18306,-0.279098 1.049335,-0.765768 2.332527,-1.190988 3.332975,-2.019605 0.146521,-0.121351 -0.237601,-0.297204 -0.354481,-0.447315 -0.140504,-0.180456 -0.278429,-0.362905 -0.417645,-0.544359 -0.761304,-1.073288 -1.113901,-1.865394 -2.470195,-2.157195 -1.416841,0.163023 -5.154628,1.958162 -4.659021,4.027476 0.03758,0.156912 0.134453,0.293352 0.201679,0.440029 0.324461,0.416806 1.026379,0.909034 1.589857,0.585994 1.282282,-0.735126 2.570837,-1.470761 3.767624,-2.338142 0.212477,-0.153992 0.264465,-0.453318 0.396695,-0.679976 0.831633,-1.281517 1.092642,-3.004218 2.203162,-4.092321 -1.010462,0.626898 -2.078847,1.168861 -3.031384,1.880695 -0.116689,0.0872 0.298913,0.0037 0.432692,0.06132 0.250986,0.108162 0.480142,0.264536 0.700037,0.426831 0.939252,0.693208 1.753952,1.57103 2.593218,2.377152 0.391366,0.35692 0.791562,0.818348 1.323967,0.990946 0.171977,0.05575 0.382376,0.112813 0.541676,0.02732 1.3002,-0.697762 2.599013,-1.425575 3.760274,-2.335996 0.21217,-0.166338 0.154586,-0.516998 0.214165,-0.779936 0.0768,-0.33895 0.12977,-0.682863 0.194654,-1.024292 0.06887,-0.388572 0.140282,-0.776702 0.206615,-1.165714 0.159909,-0.937777 0.27472,-1.89233 0.477944,-2.822422 0.02668,-0.122099 0.215368,-0.418856 0.105177,-0.359884 -1.197499,0.640888 -2.305624,1.436339 -3.458435,2.154509 0.09627,1.174619 0.125976,2.373375 0.514482,3.499939 0.284972,0.826346 0.658371,1.477012 1.058783,2.248537 0.544643,0.848241 1.574689,2.925247 2.715186,3.103446 0.154739,0.02418 0.31132,-0.03457 0.466977,-0.05185 1.226047,-0.80626 2.515804,-1.523114 3.678142,-2.418784 0.263348,-0.202927 0.421087,-1.75633 0.449323,-2.041676 0.205269,-2.074211 -0.02429,-0.122171 0.242851,-2.263973 0.147066,-0.901373 0.173471,-1.866686 0.552421,-2.71635 0.06776,-0.151926 0.415107,-0.499413 0.268615,-0.420593 -3.478588,1.871659 -4.11812,1.667202 -2.667005,1.953315 0.602633,0.704005 1.047914,1.666088 1.050599,2.612553 5.3e-4,0.158845 -0.227901,0.55441 -0.09532,0.46691 0.996122,-0.657447 1.859569,-1.496658 2.789354,-2.244987 -2.637358,-2.105532 -4.658828,-4.841415 -6.523328,-7.624975 -1.528903,-2.304584 -0.971047,-2.594417 -4.443939,0.646267 -0.151778,0.141631 0.190704,0.368811 0.287819,0.552291 0.122565,0.231568 0.247473,0.461889 0.37121,0.692834 1.270053,2.446779 3.061404,4.572438 4.800603,6.694465 0.848429,0.860425 1.569561,2.08825 2.74892,2.559489 0.146384,0.05849 0.31968,0.1665 0.462333,0.09943 1.302192,-0.612233 2.517312,-1.394725 3.775969,-2.09209 0.472223,-1.280866 0.462129,-2.681799 0.527228,-4.031042 0.0045,-0.101198 0.103952,-0.349494 0.01365,-0.303595 -1.223783,0.622007 -2.476754,1.234422 -3.543945,2.097924 -0.178536,0.144459 0.06462,0.455037 0.110706,0.680024 0.224309,1.095007 0.540015,2.170877 0.851737,3.243064 0.412125,1.186556 0.590756,2.902852 1.853197,3.520064 3.124631,-0.105076 5.211738,-3.575944 7.000401,-5.710181 0.935821,-1.007021 3.677158,-3.289756 -1.657265,0.641053 -0.130511,0.09617 0.327107,-0.06159 0.485576,-0.02739 0.477819,0.103098 0.778256,0.435256 1.138132,0.731631 1.202193,1.112044 2.398965,2.278317 3.835345,3.083999 1.79845,0.643504 2.5797,-0.601731 4.36639,-2.284129 0.1675,-0.157729 -0.49036,-2.253326 -0.57682,-2.515491 -0.1114,-0.247222 -0.2228,-0.494441 -0.3342,-0.741662 0,0 -3.41592,1.928125 -3.41592,1.928125 v 0 c 0.10674,0.233095 0.21349,0.466193 0.32024,0.699288 0.20624,0.643192 0.35036,0.979919 0.42297,1.657205 0.0229,0.213912 -0.2079,0.707702 -0.002,0.645411 1.15079,-0.34811 2.14775,-1.081283 3.22275,-1.619684 0.0953,-0.04772 -0.1775,0.137078 -0.28354,0.147611 -0.14397,0.01431 -0.28476,-0.05134 -0.42714,-0.07701 -1.4694,-0.691695 -2.61377,-1.914938 -3.79888,-2.997671 -0.38148,-0.343147 -0.76717,-0.754737 -1.257753,-0.955346 -1.876655,-0.767414 -4.323016,1.741897 -5.615942,3.205114 -0.750049,0.91259 -1.466909,1.864249 -2.266397,2.734712 -0.193329,0.210489 -0.872654,0.71301 -0.608399,0.604147 2.150668,-0.886013 3.898757,-2.343147 2.732889,-1.387761 -0.07941,-0.0043 -0.165081,0.01818 -0.238218,-0.01304 -0.808397,-0.345223 -1.232225,-2.427126 -1.486397,-3.128356 -0.312595,-1.092491 -0.355047,-1.174046 -0.595947,-2.280652 -0.06735,-0.309386 -0.134877,-0.61921 -0.181573,-0.932379 -0.03205,-0.214897 0.157162,-0.6994 -0.05431,-0.649552 -3.629221,0.855454 -3.542305,0.267096 -3.536521,1.786153 -0.02106,0.976419 0.0062,2.460891 -0.413933,3.337241 -0.06506,0.135723 -0.183124,0.238913 -0.274688,0.35837 1.044083,-0.552148 2.11555,-1.055354 3.132243,-1.656442 0.112311,-0.0664 -0.262096,0.06164 -0.389834,0.03508 -0.184224,-0.03831 -0.357293,-0.126344 -0.518194,-0.223898 C 88.586247,26.945775 87.959152,26.06981 87.259203,25.332301 85.534836,23.23557 83.740517,21.136976 82.55602,18.674307 82.439322,18.443439 82.318188,18.21476 82.205926,17.981704 82.123889,17.8114 82.15258,17.404713 81.973262,17.46453 c -1.240804,0.413906 -2.344214,1.161508 -3.505187,1.764045 -0.02975,0.01544 0.07791,-0.0218 0.100502,0.003 0.146648,0.160725 1.035534,1.452597 1.036492,1.453968 1.949664,2.809486 4.044891,5.524123 6.574819,7.843266 1.342892,-0.560255 2.754103,-0.978834 4.028678,-1.680763 0.16116,-0.08876 0.04015,-0.368089 0.02453,-0.551409 -0.09194,-1.079361 -0.556247,-2.115861 -1.221351,-2.957135 -3.899834,-2.52981 -4.710348,3.116243 -4.935781,5.085079 -0.126855,1.012148 -0.183346,2.063597 -0.405202,3.061325 -0.04483,0.201623 -0.102293,0.401386 -0.178339,0.593426 -0.06805,0.171855 -0.424344,0.561178 -0.252206,0.493839 1.070776,-0.418877 2.039948,-1.06146 3.059922,-1.592191 -0.106146,0.08798 -0.185608,0.227013 -0.318437,0.263946 -0.912154,0.253608 -2.244169,-2.234573 -2.605635,-2.79304 -0.415335,-0.802179 -0.721548,-1.311851 -1.000649,-2.175544 -0.367863,-1.138376 -0.358063,-2.340576 -0.44753,-3.519416 -1.202531,0.478385 -2.445945,0.864623 -3.607593,1.435155 -0.111808,0.05491 -0.04462,0.245125 -0.0641,0.368158 -0.03691,0.233176 -0.06975,0.46698 -0.105068,0.700402 -0.164828,1.089232 -0.329414,2.179214 -0.560113,3.256992 -0.08035,0.329626 -0.134551,0.666747 -0.241064,0.988872 -0.07429,0.224668 -0.523208,0.719093 -0.298831,0.643932 1.080863,-0.362066 2.032669,-1.032486 3.041719,-1.562743 0.134122,-0.07048 -0.264875,0.192503 -0.416087,0.18297 -0.488323,-0.03078 -1.003514,-0.608171 -1.299961,-0.865499 -1.045885,-0.991344 -2.107158,-2.23043 -3.337581,-2.987095 -0.1729,-0.106325 -0.367062,-0.331827 -0.553995,-0.252742 -1.317856,0.557535 -2.50475,1.384409 -3.757126,2.076615 -0.901586,1.267195 -1.304655,2.819513 -2.15324,4.122732 -1.150776,1.537628 -0.595918,0.61858 2.543061,-1.003179 0.118952,-0.06145 -0.202321,0.186622 -0.328692,0.230857 -0.34023,0.119103 -0.71002,-0.06843 -0.92361,-0.315441 -0.181052,-0.41679 -0.14451,-0.715965 0.06684,-1.135293 0.07543,-0.149653 0.427979,-0.487045 0.273619,-0.421783 -1.273167,0.538274 -4.224888,2.306119 -2.562625,1.316313 1.298903,0.05209 1.615424,0.921025 2.31816,1.884103 0.136364,0.183412 0.273709,0.366099 0.409094,0.550236 0.116435,0.158358 0.155363,0.523676 0.346355,0.477234 4.786022,-1.163812 4.351922,-0.888736 2.686135,-2.854921 -2.038834,-2.510107 -4.086003,-5.037385 -6.493502,-7.209388 -1.764483,-1.297084 -0.716516,-0.848689 -4.295802,1.743862 -0.139742,0.101217 -0.110191,0.327244 -0.15541,0.493759 -0.190754,0.70245 -0.304967,1.427092 -0.570781,2.108566 -0.872567,1.269098 -1.170776,1.546069 2.879252,-1.12073 0.138422,-0.09115 -0.305898,-0.137992 -0.433057,-0.244288 -0.485008,-0.405434 -1.01114,-1.133826 -1.349841,-1.616716 -0.306237,-0.436607 -0.589171,-0.889102 -0.883758,-1.333652 -1.968077,-3.244507 -3.914984,-6.525948 -5.390259,-10.029972 -0.696473,-1.810951 -0.178837,-1.11162 -3.812553,1.015579 -0.104002,0.06088 0.109765,0.214597 0.162475,0.322968 0.748832,1.539521 0.272019,0.627794 1.300502,2.53917 0.385344,0.716138 0.775509,1.429671 1.163264,2.144507 1.55662,2.784592 3.165697,5.539304 4.722482,8.323594 0.3772,0.674621 0.337862,1.960787 1.106963,2.037443 1.3065,0.130217 2.409227,-1.044618 3.613841,-1.566924 -0.08103,-0.02854 -0.162063,-0.05708 -0.243094,-0.08562 -1.718836,-1.343026 -3.054043,-3.166967 -5.098462,-4.068915 -1.107348,-0.516039 -1.106321,-0.57559 -2.261249,-0.886862 -0.329472,-0.0888 -0.681225,-0.337922 -1.000384,-0.217193 -1.827591,0.691321 -3.61909,1.309801 -4.661186,2.89212 -0.0814,0.138668 -0.157686,0.280471 -0.244207,0.416003 -0.06912,0.108277 -0.338215,0.370214 -0.222327,0.314787 1.082836,-0.517901 2.108623,-1.147486 3.162932,-1.721229 -0.09874,0.06914 -0.253738,0.219321 -0.403812,0.185799 -0.08183,-0.01828 -0.143293,-0.08709 -0.21494,-0.130643 -0.271028,-0.327806 -0.528553,-0.682064 -0.513149,-1.136607 0.0046,-0.136621 0.232905,-0.447918 0.106426,-0.396049 -0.883644,0.362384 -4.595513,2.283096 -2.504961,1.390875 2.578362,-0.170691 5.125506,0.536039 7.708138,0.464596 1.360406,-0.721092 2.762917,-1.367814 4.081217,-2.163277 0.561181,-0.338616 0.120263,-2.68138 0.119065,-3.218338 -0.03193,-0.45947 -0.0836,-1.012991 -0.06718,-1.477944 0.0067,-0.190209 0.01595,-0.382388 0.05788,-0.568039 0.02705,-0.119794 0.260845,-0.383325 0.146722,-0.337958 -3.692416,1.467814 -4.210084,0.719061 -3.138053,1.902511 1.388491,2.491938 2.164172,5.306102 2.785353,8.072399 -0.252976,1.765385 -0.303887,0.879693 2.980828,-0.969107 0.165597,-0.09321 -0.352132,0.149752 -0.53839,0.187404 -0.897359,0.181401 -1.837923,0.03188 -2.741369,0.129433 -0.375793,0.04261 -0.756987,0.0514 -1.127385,0.127846 -0.351247,0.07249 -0.711398,0.148869 -1.028184,0.317022 -3.683428,1.95519 -3.984813,2.012861 -6.052595,4.548141 -0.238627,0.227745 -1.023699,0.801793 -0.715878,0.683236 0.960695,-0.370006 1.854388,-0.904605 2.72347,-1.456449 0.186177,-0.118219 -0.426881,0.125455 -0.647062,0.137988 -1.108429,0.0631 -2.171046,-0.429511 -3.240934,-0.611706 -4.577683,-1.000114 -8.45665,-1.687431 -11.987792,2.712201 -0.179528,0.296111 -0.348223,0.599067 -0.538583,0.888336 -0.181364,0.275603 -0.895765,0.885479 -0.575789,0.805058 1.014415,-0.254952 1.8844,-0.908446 2.823086,-1.369869 0.150145,-0.07381 -0.291365,0.185417 -0.457285,0.20693 -0.468733,0.06077 -0.930415,-0.192743 -1.338845,-0.352853 -1.313862,-0.767657 -2.819185,-1.889895 -2.953924,-3.541324 -1.075185,0.536829 -2.266596,0.88619 -3.225552,1.61049 -0.209505,0.158237 0.510181,0.141475 0.741461,0.26574 0.374031,0.200961 0.721709,0.449408 1.062061,0.703267 1.248013,0.93086 2.390148,2.008664 3.447352,3.148452 4.261889,-1.609654 4.929798,-0.777409 3.159974,-1.763183 -0.215577,-0.120076 -0.426966,-0.247526 -0.640506,-0.37119 -0.15262,-0.08838 -0.291515,-0.323209 -0.457978,-0.264945 -2.449028,0.857215 -2.700501,1.036452 -3.975669,1.876107 1.012397,-0.568814 2.038744,-1.113491 3.037195,-1.706449 0.186012,-0.110468 -0.38975,0.191723 -0.596093,0.256734 -1.644531,0.51813 -3.426468,0.382042 -5.119193,0.533474 -2.614134,0.170145 -6.816114,0.379439 -7.364103,3.579505 -0.739793,1.379339 -0.199411,0.229428 2.924109,-1.369084 0.140774,-0.07204 -0.223793,0.235837 -0.369271,0.297837 -0.839758,0.357891 -1.880201,-0.05407 -2.691231,-0.211027 -1.860347,-0.547036 -3.691795,-1.163672 -5.529258,-1.783231 -0.690068,-0.232677 -1.378794,-0.469373 -2.070228,-0.697963 -0.553175,-0.18288 -1.099663,-0.683093 -1.663518,-0.536413 -1.489487,0.387472 -2.759437,1.363938 -4.139156,2.045906 0.0605,0.165222 0.07018,0.3594 0.181489,0.49566 0.523162,0.640424 1.909095,1.618398 2.47641,2.011416 1.734389,1.20152 3.538161,2.348476 5.520229,3.097911 0.411738,0.113262 0.816088,0.257995 1.235214,0.339788 1.082265,0.211206 0.837407,0.05623 1.857631,-0.004 1.72628,-0.101997 3.432189,0.203065 5.143241,0.379111 4.238302,0.490138 8.460288,0.993973 12.723461,0.426537 1.009882,-0.134416 2.047102,-0.218225 3.002224,-0.572727 1.988841,-0.738175 3.847221,-1.788978 5.770832,-2.683465 1.198571,-0.795386 1.631056,-0.840775 2.297303,-2.016872 0.728089,-1.285263 0.422511,-2.886522 1.062686,-4.206226 -0.896998,0.327911 -1.753603,0.800904 -2.690995,0.983734 -0.381418,0.07439 0.594426,-0.545116 0.969184,-0.647912 0.517237,-0.141877 1.073166,-0.0999 1.607947,-0.05899 0.785382,0.06008 1.560248,0.220461 2.335351,0.360643 1.367311,0.247285 6.343178,1.295053 7.371016,1.509138 10.935266,1.995699 21.45285,3.644122 32.412252,0.686242 2.126228,-1.011322 4.28338,-1.960028 6.37868,-3.033966 1.91896,-0.983552 4.62567,-2.775956 5.13444,-5.073447 0.0628,-0.283557 0.006,-0.580825 0.009,-0.871238 -0.3696,-1.228964 -1.05616,-2.711974 -2.52161,-2.894312 -0.28986,-0.03607 -0.58193,0.05119 -0.8729,0.07679 -1.45785,0.375549 -0.63403,0.129705 -2.12482,0.658354 -0.25329,0.08982 -1.46041,0.550999 -1.85096,0.563677 -0.59199,0.01922 -0.85699,-0.338435 -1.294693,-0.677823 -3.04696,-2.898587 -5.768559,-5.981356 -9.785636,-7.611049 -0.800266,-0.258859 -1.580808,-0.589374 -2.400805,-0.776575 -1.11315,-0.254127 -3.610313,-0.573384 -4.767154,-0.125033 -1.746422,0.676854 -5.149461,2.447051 -6.990821,3.982306 -0.510174,0.425363 -0.950028,0.928594 -1.42504,1.392891 -1.175041,1.652026 -0.66575,0.820314 -1.506551,2.384889 -0.124372,0.231433 -0.624051,0.77518 -0.374282,0.693668 1.106435,-0.36108 2.084549,-1.036651 3.110307,-1.586557 0.256582,-0.137553 -1.546969,0.619748 -0.866701,-0.107817 -3.044465,-1.827802 -5.915385,-3.984916 -9.249818,-5.289884 -0.489817,-0.169829 -2.79899,-1.14615 -3.592237,-0.864788 -3.112698,1.10406 -5.380122,2.685537 -7.383618,5.146033 -0.941406,1.283088 -1.50453,1.981876 -2.315655,3.387762 -1.000387,1.733923 -1.081119,2.268242 -2.058815,4.021394 -0.344025,0.616881 -1.630995,1.32542 -1.111547,1.80403 0.59063,0.544192 1.535795,-0.470408 2.30369,-0.705615 -0.30417,0.07245 -0.599895,0.223666 -0.912513,0.21736 -0.705289,-0.01423 -2.260116,-0.649099 -2.793511,-0.82541 -2.407898,-0.795919 -4.858911,-1.43361 -7.398927,-1.631582 -0.954093,0.01109 -1.910075,-0.02776 -2.862278,0.03323 -3.68536,0.236085 -7.303693,1.246528 -10.638451,2.812097 0,0 -3.067123,2.468682 -3.067123,2.468682 z" />
    <path
       style="fill:#fff6d5;stroke-width:0.264583"
       id="path1472"
       d="m 135.37642,27.567069 c 3.42975,-3.298283 6.83695,-6.618671 10.43156,-9.738377 3.27778,-2.43707 0.56606,-0.494704 3.81785,-2.63374 0.44628,-0.293565 -1.89112,0.809708 -1.35847,0.850113 0.64956,0.04927 1.16472,-0.589634 1.7746,-0.818546 1.51973,-0.570414 2.09765,-0.583348 3.66989,-0.833076 3.16362,-0.121411 6.22926,0.798196 8.77875,2.692121 0.48559,0.36073 0.92012,0.785548 1.38018,1.178321 1.15715,1.052084 2.07023,2.31756 2.98487,3.574424 0.42676,0.586425 0.78526,1.21242 1.36552,1.653621 1.22171,-0.771744 2.58721,-1.352822 3.66514,-2.31523 0.24471,-0.218487 0.023,-0.655733 0.0298,-0.983718 0.025,-1.199775 -0.0104,-2.219651 0.17732,-3.423909 0.32435,-2.080992 0.51181,-2.194125 1.32655,-4.164365 0.46689,-0.642602 0.93378,-1.285205 1.40067,-1.927807 0.60328,-0.509776 1.31317,-0.9152057 1.80982,-1.5293284 0.3056,-0.3778793 -1.6947,0.6980057 -1.21937,0.7992289 0.78827,0.1678655 1.55221,-0.4633573 2.35259,-0.5579062 2.08219,-0.2459691 2.97889,0.058701 5.01104,0.4080163 2.62186,0.6940294 5.06223,1.9079814 6.99889,3.8339884 0.74546,0.741354 1.11316,1.325111 1.70981,2.161908 0.35273,0.690527 0.87512,1.336037 1.0995,2.092019 0.0249,0.08398 0.0501,0.178012 0.0242,0.261688 -0.0146,0.04717 -0.17009,0.100363 -0.12824,0.07416 1.06155,-0.664637 2.12494,-1.326335 3.18741,-1.989502 -1.23963,0.746657 -2.51361,1.439043 -3.71888,2.239973 -0.20132,0.133783 -0.32172,0.361002 -0.47564,0.547377 -0.25764,0.311955 -0.5122,0.626589 -0.75881,0.947335 -1.03499,1.346136 -2.03628,2.721738 -3.04765,4.085622 -1.72015,2.136502 -3.10253,4.680332 -5.2928,6.401545 -0.44145,0.346908 -0.93131,0.627329 -1.39696,0.940993 0.56522,-0.362979 2.08834,-0.543915 1.69567,-1.088938 -0.4107,-0.570068 -1.30939,0.534829 -1.99938,0.667385 -0.9373,0.180073 -1.89665,0.262073 -2.85109,0.26447 -3.92842,0.0099 -7.68059,-1.095481 -11.43853,-2.090748 -2.7654,-0.756587 -5.46822,-1.715902 -8.21018,-2.548491 -1.13802,-0.345553 -2.19672,-0.657103 -3.38096,-0.712994 -1.3664,0.759323 -2.78143,1.437082 -4.09922,2.277968 -0.28242,0.180215 -1.06786,1.447358 -1.18401,1.648991 -0.60965,1.058276 -1.11801,2.184919 -1.62739,3.293457 -0.1699,0.329901 -0.3267,0.666885 -0.5097,0.9897 -0.34859,0.614911 -0.67527,1.166202 -1.24855,1.603735 -0.28505,0.217551 -1.2039,0.768287 -0.9364,0.529492 1.9744,-1.762556 3.17599,-1.673502 0.69339,-1.37814 -1.48911,0.05358 -3.00973,-0.09188 -4.26817,-0.962149 -0.41585,-0.287581 -0.76103,-0.662673 -1.11464,-1.01849 -0.15319,-0.15865 -0.38632,-0.416685 -0.57473,-0.562772 -1.19083,-0.92334 -3.63659,0.875321 -3.95457,2.333617 -0.56989,1.244397 -2.48966,2.42977 2.96567,-1.579057 0.10202,-0.07497 -0.25596,-0.04164 -0.36444,-0.106902 -0.58556,-0.352245 -0.99823,-0.837647 -1.47636,-1.317913 -0.67775,-0.818346 -1.38942,-1.657493 -1.85621,-2.623288 -0.085,-0.175805 -0.14747,-0.363419 -0.19106,-0.553755 -0.0189,-0.08231 0.0774,-0.29868 0.006,-0.253233 -1.03125,0.658562 -1.98375,1.432994 -2.97562,2.149491 3.80074,1.920661 7.63975,3.757287 11.5423,5.462784 1.58354,0.597135 3.29467,1.530815 5.05932,1.25713 0.22962,-0.03561 0.46403,-0.0886 0.66758,-0.200665 1.33449,-0.734685 2.62062,-1.553985 3.93092,-2.330979 -0.4035,0.07412 2.11083,-1.508138 1.54216,-1.193345 -0.72205,0.399695 -1.70144,0.583766 -2.1048,1.303771 -0.28003,0.499872 1.08582,-0.378028 1.64804,-0.488458 1.42839,-0.280556 2.35825,-0.20411 3.80284,-0.197461 2.29737,0.254143 1.19314,0.07813 3.31574,0.508638 0,0 3.15532,-2.196291 3.15532,-2.196291 v 0 c -2.16987,-0.450455 -1.04267,-0.261723 -3.3845,-0.548655 -1.42332,-0.03083 -2.43405,-0.114734 -3.84958,0.100912 -2.96955,0.452395 -5.47489,2.333836 -7.78378,4.155172 0.9404,-0.513876 1.88727,-1.016084 2.82121,-1.541626 0.19757,-0.111178 -0.39343,0.235492 -0.61132,0.298082 -1.7129,0.492022 -3.51435,-0.483097 -5.06916,-1.018101 -3.90672,-1.65504 -7.77519,-3.44002 -11.42267,-5.616368 -1.26757,0.645803 -2.58632,1.199711 -3.80271,1.937414 -0.0952,0.05772 0.0336,0.22126 0.0697,0.326562 0.0704,0.205515 0.1468,0.410498 0.24847,0.602467 0.51545,0.973161 1.24334,1.828935 1.92247,2.68629 0.14147,0.150239 1.78009,1.86858 1.97795,1.786136 2.82855,-1.178576 3.21461,-0.891823 3.81634,-2.494383 0.69958,-1.324771 0.0313,0.02593 -3.15897,1.685724 -0.0614,0.03196 -0.003,-0.14696 0.0357,-0.204663 0.0692,-0.104304 0.25033,0.0666 0.34481,0.148712 0.12401,0.107788 0.23721,0.22742 0.35582,0.34113 0.34744,0.339428 0.80539,0.807061 1.19003,1.084976 1.3039,0.942113 2.86635,1.169845 4.44185,1.140566 3.00296,-0.232836 1.39495,0.06284 6.0389,-2.33236 1.33631,-0.689218 1.98536,-2.036188 2.60305,-3.327635 0.65201,-1.410425 1.28702,-2.934748 2.30121,-4.13253 0.18889,-0.223086 0.90188,-0.717743 0.63023,-0.609783 -0.95766,0.380601 -1.82189,0.963613 -2.73284,1.445419 0.25113,-0.01542 0.50249,-0.06514 0.75338,-0.04627 0.70913,0.05335 2.09011,0.420997 2.6781,0.581869 2.8028,0.766834 5.55407,1.710947 8.36215,2.460027 4.5785,1.216745 9.45161,2.845613 14.26137,2.105541 2.45092,-0.377121 4.95026,-2.234467 6.87103,-3.305402 0.46322,-0.33337 0.95068,-0.63541 1.38966,-1.000104 2.14053,-1.778299 3.50749,-4.310158 5.23314,-6.447403 1.02998,-1.367946 2.03694,-2.764979 3.11787,-4.093742 0.26201,-0.322071 0.53221,-0.637865 0.8143,-0.942494 0.16502,-0.178198 0.74443,-0.610003 0.52567,-0.504514 -1.0544,0.508439 -2.03894,1.150551 -3.0584,1.725826 1.17646,-0.724592 2.39248,-1.388579 3.5294,-2.173775 0.10377,-0.07167 -0.0619,-0.584111 -0.0714,-0.608317 -0.29783,-0.758092 -0.81595,-1.416353 -1.2057,-2.123267 -0.61884,-0.843684 -1.02906,-1.467231 -1.79103,-2.216547 -1.99751,-1.9643208 -4.49321,-3.2230035 -7.17794,-3.9587324 -2.06804,-0.3929957 -2.96084,-0.7072654 -5.08884,-0.5326513 -3.18581,0.2614121 -4.61206,1.4713093 -7.61869,3.4520937 -0.66669,0.439219 -1.24894,1.008048 -1.77269,1.610608 -0.53294,0.613142 -0.9172,1.341125 -1.37581,2.011687 -0.81492,2.064886 -0.9708,2.119841 -1.31219,4.282466 -0.22865,1.448436 -0.13644,2.067131 -0.26209,3.466202 -0.0264,0.293896 -0.42195,0.931018 -0.13217,0.875313 1.1723,-0.225364 2.175,-0.984725 3.2625,-1.477087 -0.0946,-0.03694 -0.20772,-0.04355 -0.28381,-0.110822 -0.1775,-0.156928 -1.03628,-1.299415 -1.0821,-1.359476 -0.96032,-1.258969 -1.89296,-2.546979 -3.0693,-3.620555 -0.46743,-0.409577 -0.90693,-0.853421 -1.40229,-1.22873 -2.58132,-1.955717 -5.72335,-2.923145 -8.94293,-2.912455 -1.50329,0.208298 -2.28893,0.242054 -3.74395,0.755903 -0.6216,0.219525 -1.22419,0.496282 -1.8053,0.807573 -3.09709,1.659061 -6.16156,3.345852 -8.88545,5.573911 -3.62311,3.190557 -7.08878,6.552819 -10.60056,9.864076 0,0 3.64359,-1.537719 3.64359,-1.537719 z" />
    <path
       style="fill:#fff6d5;stroke-width:0.264583"
       id="path1474"
       d="m 169.69056,34.145691 c 0.25889,-0.169548 0.52573,-0.327536 0.77666,-0.508646 0.61732,-0.44554 2.0962,-1.632987 2.6283,-2.041385 1.4285,-1.096393 2.88088,-2.161286 4.34721,-3.206215 0.38314,-0.225812 1.48421,-0.970225 1.14944,-0.677432 -0.67105,0.586915 -1.6694,0.827779 -2.16706,1.567458 -0.21694,0.32244 0.77525,-0.0947 1.16342,-0.07572 1.20328,0.05883 2.2578,0.514006 3.32139,1.025458 1.54969,0.869768 2.64334,2.299883 3.99713,3.406963 0.94323,0.471392 1.82528,0.07599 2.76789,-0.175075 1.1937,-0.317944 1.10708,-0.270764 2.42442,-0.501763 1.20846,-0.282499 2.49048,-0.179621 3.69876,-0.452523 1.65169,-0.373051 4.27526,-2.49247 4.81604,-2.93303 0.26222,-0.213619 0.27442,-0.61827 0.41163,-0.927404 0.52066,-1.752651 0.2777,-3.51241 -0.24473,-5.222846 -0.21578,-0.443703 -0.34486,-0.980452 -0.74044,-1.314777 -0.95648,-0.808372 -2.71519,-0.804302 -3.86827,-0.948213 -4.30245,-0.241792 -8.63238,0.1773 -12.84595,1.050545 -1.9772,0.36584 -3.71212,1.444383 -5.62058,2.005736 -0.46079,0.135538 -0.93244,0.231029 -1.39865,0.346543 -3.71487,0.738975 -7.38744,-0.223234 -10.92659,-1.311215 -1.53,-0.442552 -3.05885,-1.169122 -4.68694,-1.139636 -0.66515,0.01205 -0.86387,0.105099 -1.48319,0.273839 -1.80938,0.875896 -1.65769,0.775472 -4.51667,2.739338 -0.0689,0.0473 -1.3669,1.478999 -1.37473,1.487344 -0.7495,0.799288 -0.70197,0.732896 -1.47108,1.457246 -2.08135,1.433205 1.35548,-0.647422 1.9411,-1.107967 0.2197,-0.172775 -0.53899,0.156893 -0.81635,0.191426 -0.88238,0.109874 -1.68357,-0.086 -2.51609,-0.34068 -1.64053,-0.71753 -1.71416,-1.22969 -1.26467,-2.867423 0.63463,-1.645186 2.11969,-1.603194 -2.82336,1.230108 -0.0334,0.01912 -0.0715,-0.104172 -0.0909,-0.07099 -0.0509,0.0868 -0.0239,0.199939 -0.0425,0.298801 -0.0305,0.161915 -0.0699,0.322033 -0.10488,0.483049 -0.33181,1.22469 -1.2809,1.922039 -2.34517,2.501043 5.65403,-3.3805 1.99369,-1.055291 0.60098,-0.580501 -0.55482,0.189142 -0.63119,0.143975 -1.18619,0.137752 -1.7241,-0.757369 -0.79836,-2.552999 -0.2275,-3.80799 0.28943,-0.480977 0.63542,-1.130361 1.04413,-1.538176 0.19607,-0.195645 0.90512,-0.634821 0.66172,-0.502621 -5.25968,2.856724 -2.55105,1.454498 -1.50422,1.112132 0.3963,-0.129612 0.80549,-0.215881 1.20823,-0.323822 1.13336,-0.158971 3.20723,-0.477727 4.01827,0.649366 0.0877,0.121887 0.11959,0.275494 0.17938,0.413241 0.0884,0.607894 0.23701,1.847832 -0.56123,2.062037 1.13939,-0.636874 2.35636,-1.151429 3.41817,-1.910622 0.19486,-0.139326 0.1318,-0.461019 0.21368,-0.68614 0.20429,-0.561708 0.41357,-1.121985 0.64443,-1.673306 0.562,-1.342157 1.27957,-2.896422 2.00901,-4.153865 0.37557,-0.647423 0.8119,-1.257637 1.21785,-1.886455 1.0234,-1.353946 1.10782,-1.637454 2.34523,-2.679787 0.31611,-0.26628 1.37216,-0.919193 1.01182,-0.716748 -5.51311,3.097294 -2.67219,1.349183 -1.73268,1.382116 0.19305,0.0068 0.36524,0.125898 0.54787,0.188847 1.00458,0.870498 1.40919,2.163553 1.47536,3.456347 -0.0458,0.250075 -0.0437,0.495684 -0.23851,0.689217 -0.0772,0.07671 -0.37683,0.218026 -0.28375,0.161595 1.006,-0.609946 2.04165,-1.172768 3.02262,-1.822197 0.14066,-0.09312 -0.31823,0.121224 -0.48556,0.142604 -0.17393,0.02222 -0.35058,-0.0089 -0.52586,-0.01337 -0.86176,-0.172069 -1.37853,-0.789564 -1.32616,-1.667902 0.0174,-0.0079 0.0686,-0.03323 0.052,-0.02379 -1.1642,0.663612 -2.37851,1.245507 -3.49512,1.986407 -0.0799,0.05301 0.0651,0.180633 0.0894,0.273395 0.0352,0.134793 0.0582,0.272501 0.0888,0.408416 0.20753,0.921016 0.0822,0.273628 0.26708,1.370732 0.14259,0.988591 0.2201,1.984961 0.28189,2.981348 0.0435,0.701789 -0.0457,1.093935 0.32615,1.678995 0.16882,0.03365 0.33618,0.126169 0.50647,0.100948 0.21424,-0.03173 0.4054,-0.156943 0.59372,-0.263898 1.35776,-0.795547 2.71553,-1.591095 4.07329,-2.386642 0.26206,-0.1705 0.51874,-0.349565 0.78617,-0.511501 0.298,-0.180442 1.20126,-0.705257 0.90933,-0.51515 -0.74145,0.482849 -1.50595,0.929355 -2.25893,1.394032 1.35972,-0.51932 3.35661,-1.768035 4.87194,-1.363509 0.63757,0.629862 0.78981,1.576863 1.074,2.394655 0.40755,0.932387 1.44219,1.241229 2.39973,1.019589 0.3841,-0.08891 0.7466,-0.253661 1.1199,-0.380492 0.423,-0.208688 0.85805,-0.394562 1.26901,-0.626065 1.5372,-0.865931 3.06335,-1.752038 4.57314,-2.664921 1.5358,-0.928609 2.93161,-2.10398 4.42463,-3.101003 2.19879,-1.238762 -0.85565,0.468871 -2.09289,1.332519 -0.0919,0.06416 0.22907,-0.03808 0.33621,-0.0052 0.0807,0.02479 0.15131,0.09217 0.19046,0.166966 0.13062,0.249541 0.18798,0.817881 0.22442,1.059633 0.0256,0.865733 0.16627,1.759433 0.0713,2.626257 -0.009,0.08221 -0.15149,0.275512 -0.0794,0.23507 1.12993,-0.63348 2.2036,-1.362471 3.30539,-2.043706 -0.51937,-1.625448 -0.6689,-3.343533 -0.98025,-5.016735 -0.27277,-0.887986 -0.3241,-2.409501 -0.91622,-3.158554 -0.0792,-0.10025 -0.20265,-0.155733 -0.30398,-0.233599 -1.24116,0.701962 -2.55669,1.28625 -3.7235,2.105885 -0.20965,0.147264 -0.1966,0.473245 -0.28852,0.712385 -0.12475,0.324582 -0.24844,0.649719 -0.36144,0.978581 -0.44348,1.290657 -0.79156,2.616112 -1.17925,3.924019 -0.6722,2.29136 -1.42364,4.559795 -2.06021,6.861518 -0.011,0.11121 -0.1329,0.383871 -0.0331,0.333632 1.36259,-0.685741 2.72522,-1.400511 3.95267,-2.306208 0.2869,-0.211702 0.31696,-0.638817 0.47304,-0.959398 0.19047,-0.391192 0.3751,-0.785213 0.5666,-1.175899 0.74638,-1.522723 0.51658,-1.063114 1.35795,-2.571288 0.96329,-1.546386 1.78754,-3.461102 3.46385,-4.367831 -5.56568,3.303835 -3.46408,1.548167 -2.00109,1.650592 0.63732,0.04462 1.1139,0.304358 1.63333,0.645892 1.14376,0.997185 1.64245,2.43121 2.30762,3.743036 2.66083,2.242943 4.03877,-2.831945 4.69512,-4.189831 0.17069,-0.353133 0.36487,-0.694421 0.54731,-1.041632 0.45533,-0.842658 0.82307,-1.74388 1.40063,-2.515877 0.0777,-0.103805 0.37857,-0.345964 0.26369,-0.285884 -3.84655,2.011708 -3.27556,0.765618 -3.91548,2.777869 -0.64219,1.862456 -1.08517,3.783351 -1.39129,5.727243 -0.19766,1.365085 -0.2424,2.742775 -0.25344,4.119684 -0.006,0.788632 -0.0813,1.83466 0.76274,2.199541 1.64821,0.0687 0.22744,0.05442 3.89881,-2.069006 0.17492,-0.101169 0.69246,-0.416902 0.51864,-0.313855 -3.17375,1.881513 -4.31035,2.096474 -2.78352,1.75826 0.80111,0.04067 1.63609,0.388347 2.18922,0.977447 0.0188,0.0513 0.1107,0.159361 0.0563,0.153903 -1.19996,-0.120491 2.25583,-1.318588 2.26716,-2.117783 0.0117,-0.827171 -1.65025,-0.120206 -2.47392,-0.197081 -2.4742,-0.23092 -4.94494,-0.497858 -7.41876,-0.732731 -3.54605,-0.30002 -7.08725,-0.66635 -10.63606,-0.934446 -1.25677,-0.09494 -2.95367,-0.227791 -4.24945,-0.152184 -0.50195,0.02929 -0.99699,0.131383 -1.49549,0.197076 -2.45165,0.606358 -4.53484,2.14053 -6.59571,3.548881 -0.28009,0.19141 -0.56206,0.380106 -0.84554,0.566467 -0.26031,0.171133 -1.05452,0.663536 -0.78578,0.505968 0.81488,-0.477771 1.61643,-0.977902 2.42465,-1.466855 -2.35453,0.822436 -4.932,1.320739 -7.43857,1.103432 -0.42867,-0.03717 -0.85048,-0.131302 -1.27573,-0.196953 -0.96799,-0.137203 -1.82767,-0.508802 -2.67618,-0.966396 0,0 -3.28302,2.142405 -3.28302,2.142405 v 0 c 0.88318,0.491397 1.77381,0.904071 2.79053,1.04834 0.4386,0.07609 0.87312,0.181337 1.31579,0.228277 2.52483,0.267737 5.10642,-0.235796 7.52256,-0.922832 3.42156,-1.918338 3.11067,-1.614551 5.03785,-2.898312 0.27945,-0.186153 0.55553,-0.377312 0.8346,-0.564036 0.30962,-0.207158 1.26656,-0.780249 0.93142,-0.617595 -0.78079,0.378943 -1.5862,0.739023 -2.27352,1.268959 -0.34872,0.26887 0.82346,-0.312256 1.23519,-0.468384 0.49777,-0.0873 0.99006,-0.215704 1.49332,-0.261905 1.30174,-0.119504 3.05786,-0.01614 4.3196,0.05937 3.57597,0.213974 7.14414,0.554429 10.71188,0.870704 1.32829,0.139266 2.65775,0.267835 3.98488,0.417796 1.10324,0.124664 2.20383,0.271653 3.30592,0.406043 3.59542,0.43843 2.28169,0.65252 6.74649,-1.493915 0.16088,-0.07734 -0.11455,-0.536443 -0.13938,-0.586049 -0.63335,-0.693442 -1.50795,-1.053071 -2.40394,-1.289789 -0.12619,0.0065 -0.26543,-0.03674 -0.37857,0.01951 -1.26304,0.627859 -2.483,1.338948 -3.71947,2.017635 -0.17974,0.09866 -0.69599,0.43316 -0.51646,0.334119 1.07289,-0.591894 2.13134,-1.209859 3.20761,-1.795584 0.058,-0.03155 -0.0991,0.08723 -0.14864,0.130838 -0.66574,0.219129 -0.48368,-1.375149 -0.50633,-1.693649 0.0177,-1.35546 0.0592,-2.713269 0.25647,-4.056735 0.30944,-1.932981 0.76239,-3.836651 1.42771,-5.680745 0.58146,-1.86931 0.56555,-1.109464 -3.27876,0.45394 -0.17875,0.07269 -0.97436,1.692471 -1.02689,1.794413 -0.17935,0.348082 -0.35643,0.697328 -0.53465,1.045992 -0.47067,0.917677 -0.88949,1.841997 -1.30777,2.783484 -0.0718,0.16167 -0.3895,0.546108 -0.22518,0.480582 3.12162,-1.244789 3.87905,-2.852977 3.26559,-1.598428 -0.76594,-1.321775 -1.2617,-2.825272 -2.42245,-3.88691 -2.59463,-1.926657 -3.75626,-0.35679 -6.63639,1.250472 -1.51998,1.126801 -2.34571,2.926707 -3.297,4.508845 -0.68429,1.244647 -1.30324,2.514118 -1.9573,3.774082 -0.16586,0.319501 -0.87357,0.963142 -0.51383,0.949882 3.16414,-0.116625 3.06899,-0.01339 3.22878,-1.318156 0.56028,-2.296009 1.32226,-4.538696 1.98005,-6.807317 0.3987,-1.305907 0.75636,-2.638371 1.23949,-3.916897 0.1227,-0.324708 0.24939,-0.648843 0.40169,-0.960762 0.10587,-0.216814 0.59929,-0.699565 0.37096,-0.621565 -1.14517,0.391212 -2.17029,1.071304 -3.25543,1.606956 0.0635,0.0048 0.14541,-0.03043 0.19051,0.01454 0.49652,0.495034 0.68459,2.363405 0.90019,3.033706 0.34324,1.779366 0.4553,3.627589 1.08261,5.335924 1.20505,-0.617308 2.44828,-1.165157 3.61513,-1.851924 0.0829,-0.04878 0.0187,-0.191628 0.0204,-0.287779 0.0158,-0.893353 -0.0251,-1.790009 -0.10758,-2.679205 -0.0915,-0.541636 -0.12852,-1.328616 -0.65738,-1.668356 -0.12841,-0.0825 -0.30433,-0.174083 -0.4439,-0.112318 -2.23011,0.986843 -3.04638,1.506975 -4.65732,2.489766 -1.0714,0.737863 -2.11206,1.518108 -3.18292,2.256491 -0.40148,0.27683 -1.66993,0.992478 -1.21674,0.81237 0.72321,-0.287422 1.37216,-0.736142 2.03813,-1.138809 0.39438,-0.238454 -0.81503,0.430453 -1.22255,0.645679 -0.94575,0.388574 -2.50602,1.108283 -3.11891,-0.156269 -0.32883,-0.935432 -0.53664,-1.956759 -1.25191,-2.69152 -0.14846,-0.06858 -0.28549,-0.171425 -0.44539,-0.205736 -1.32167,-0.283613 -3.48583,0.909056 -4.67368,1.359412 -1.47202,0.807469 -2.94829,1.607244 -4.41607,2.422405 -0.3085,0.171334 -0.61145,0.352646 -0.91242,0.536887 -0.26913,0.164749 -1.07605,0.658346 -0.7976,0.509904 5.24391,-2.795477 2.65661,-1.811119 1.89915,-0.885475 -0.31287,-0.35804 -0.25054,-1.026621 -0.28284,-1.456773 -0.0757,-1.008173 -0.14479,-2.017702 -0.28104,-3.020077 -0.0942,-0.620945 -0.19055,-1.240557 -0.33653,-1.852005 -0.37423,-1.567469 -3.85608,0.02897 -3.66878,1.491882 0.11918,1.017756 0.62214,1.82225 1.64697,2.128809 0.19908,0.03953 0.39448,0.109505 0.59724,0.118583 0.17743,0.0079 0.37072,0.01348 0.52844,-0.06819 1.94795,-1.00862 4.01471,-1.220476 4.10523,-3.30875 -0.15207,-1.434478 -0.62191,-2.804763 -1.69975,-3.813194 -0.22725,-0.120771 -0.42941,-0.311782 -0.68175,-0.362313 -0.26444,-0.05295 -0.56324,-0.05213 -0.8065,0.06429 -1.44758,0.692786 -2.83235,1.512502 -4.20958,2.33632 -1.36768,0.818109 -2.31205,2.22692 -3.21113,3.486323 -0.39805,0.63741 -0.82355,1.258481 -1.19415,1.91223 -0.6791,1.197929 -1.49746,2.940641 -2.03757,4.211555 -0.24951,0.587115 -0.52563,1.167685 -0.69877,1.781673 -0.0944,0.334871 -0.44013,1.095357 -0.0967,1.039301 1.32463,-0.216242 2.45604,-1.083279 3.68406,-1.624919 0.52081,-0.755629 0.51602,-1.671555 0.29843,-2.537853 -0.0856,-0.176711 -0.14243,-0.370593 -0.25692,-0.530131 -0.94264,-1.313534 -2.92138,-1.091565 -4.29833,-0.944121 -2.8092,0.651712 -3.36354,1.120278 -6.41574,3.036188 -0.24146,0.151565 -0.43703,0.369873 -0.62298,0.585968 -0.40906,0.475388 -0.69395,1.068534 -0.99186,1.611061 -0.68922,1.674364 -1.30515,3.367107 0.56284,4.476748 0.53202,0.06632 0.769,0.145169 1.31197,5.29e-4 2.06055,-0.548558 4.41633,-3.013204 6.15624,-3.268302 1.0735,-0.687409 1.95114,-1.512505 2.21859,-2.811605 0.002,-0.01225 0.28282,-1.653768 -0.184,-1.449967 -2.78034,1.213796 -3.27697,1.09457 -3.85422,2.93978 -0.37954,1.818507 -0.18253,2.548342 1.5736,3.362954 3.40221,1.200944 5.1958,0.10962 8.24094,-2.428994 0.75833,-0.742235 1.46946,-1.523209 2.21116,-2.281243 0.21708,-0.22185 0.95475,-0.765343 0.6665,-0.650244 -1.25868,0.502593 -4.04947,2.299138 -2.23198,1.141884 0.58146,-0.214723 0.78003,-0.328533 1.41829,-0.389537 1.62287,-0.15511 3.17741,0.574605 4.70032,1.002037 3.56602,1.087687 7.26017,2.127161 11.0158,1.496003 1.09705,-0.239575 1.56027,-0.297143 2.58694,-0.677609 1.48546,-0.550483 2.87684,-1.369065 4.44793,-1.694253 4.18167,-0.942454 8.49386,-1.400786 12.7809,-1.163608 0.5973,0.07639 1.19716,0.134861 1.79188,0.229182 1.48323,0.235231 1.9586,0.368079 2.48138,1.719884 0.50924,1.624049 0.74127,3.295022 0.14226,4.940013 -0.95473,1.708338 -0.74221,0.953889 2.25852,-0.471641 0.27062,-0.128561 -0.52146,0.307817 -0.80925,0.391137 -1.14916,0.332697 -2.56495,0.168727 -3.72844,0.461552 -1.09016,0.161621 -1.40136,0.176191 -2.41571,0.433692 -0.83711,0.21251 -1.64704,0.677868 -2.52963,0.462087 -1.43319,-1.052227 -2.5196,-2.550306 -4.08633,-3.444076 -0.34191,-0.171913 -0.67272,-0.367962 -1.02573,-0.515739 -0.80594,-0.337381 -2.7669,-0.984351 -3.6277,-0.654931 -2.85963,1.094361 -3.64039,1.637411 -5.63736,2.88458 -2.63212,1.907823 -5.16708,3.948094 -7.84219,5.794232 0,0 3.66526,-1.45138 3.66526,-1.45138 z" />
    <path
       style="fill:#fff6d5;stroke-width:0.264583"
       id="path1476"
       d="m 21.799736,32.470259 c 0.211554,-0.142587 0.419544,-0.29061 0.634663,-0.42776 0.577324,-0.368075 1.164364,-0.720706 1.749425,-1.076354 0.327069,-0.198816 1.304381,-0.800955 0.985977,-0.588534 -2.058079,1.373013 -3.064504,1.774756 -0.437836,0.524658 2.564642,-1.119499 5.110018,-2.313196 7.762281,-3.215071 1.633728,-0.482116 2.113812,0.390523 2.824218,1.707579 0.186415,0.467114 0.516647,1.035259 0.322334,1.562875 -0.04348,0.11806 -0.331594,0.366993 -0.221962,0.305274 3.610579,-2.03259 3.780965,-1.91398 1.781712,-1.619772 -3.77372,-0.193217 -7.410209,-1.172151 -10.711373,-3.01132 0.103468,0.212248 -1.142447,-0.64441 -0.859235,-0.970821 0.224133,-0.258321 1.168449,-0.702296 0.90373,-0.485757 -0.503166,0.411587 -2.263743,0.950331 -1.626068,1.076625 0.822696,0.162939 1.546852,-0.650502 2.335387,-0.936141 0.930315,-0.336998 1.879119,-0.620581 2.818678,-0.930871 5.592117,-1.730457 11.402054,-2.43498 17.220496,-2.809972 1.67083,-0.05237 3.361425,-0.114334 5.020524,0.148734 0.416843,0.0661 1.115984,0.220096 1.51534,0.448636 0.127852,0.07317 0.220218,0.19571 0.330325,0.293565 0.03532,0.105415 0.107338,0.205079 0.105971,0.316246 -0.0057,0.467069 -1.309233,1.034383 -0.886847,0.754297 2.499958,-1.657734 3.518009,-1.861337 0.865291,-0.983499 -3.93849,1.03158 -8.029702,1.141858 -12.019338,1.887743 -1.700707,0.331488 -8.034737,2.925036 -3.934135,3.344824 0.525802,0.05383 1.055704,0.05434 1.583555,0.08152 3.00132,0.09893 6.01118,0.09908 8.995942,-0.267433 1.428517,-0.175414 2.631813,-0.403275 4.038669,-0.650007 2.245807,-0.421159 3.933335,-0.734537 5.670235,-2.767658 0.253069,-0.296229 -0.718159,-0.324643 -1.102611,-0.387823 -0.504291,-0.08287 -3.960691,-0.13578 -4.180555,-0.140546 -2.61576,-0.04488 -5.234058,0.06781 -7.837286,0.32635 -1.672516,0.166104 -3.334279,0.426807 -5.00626,0.600163 -0.454033,-0.02278 -1.437982,0.235758 -1.761358,-0.315097 -0.286898,-0.488721 0.07195,-1.131102 0.264356,-1.565194 0.138977,-0.183217 0.256241,-0.385146 0.416933,-0.54965 0.189955,-0.194465 0.406252,-0.363074 0.628099,-0.520185 0.237265,-0.168028 0.995191,-0.601681 0.745567,-0.452633 -4.248253,2.536613 -2.894571,1.586002 -1.553138,1.097655 0.367305,-0.133717 0.746627,-0.231772 1.119941,-0.347658 2.770931,-0.740673 5.656863,-0.754609 8.503669,-0.716458 2.909096,0.05237 5.781759,0.58964 8.416125,1.835273 0.363681,0.248097 1.423702,0.850042 1.396466,1.443631 -0.02085,0.454493 -1.913578,1.565808 -2.142979,1.717304 -0.415486,0.255055 -1.674384,0.998756 -1.246463,0.765163 0.715663,-0.390665 1.427514,-0.791187 2.110354,-1.236744 0.330835,-0.215871 -0.69994,0.366492 -1.051812,0.546041 -0.301601,0.153899 -0.607682,0.298956 -0.908555,0.454272 -1.82259,0.940855 -2.85926,1.679789 -5.002705,2.98505 -2.296115,2.041038 -4.234502,4.440343 -6.262237,6.738631 -0.319085,0.343389 -1.506366,1.654458 -1.936324,2.001128 -0.303708,0.244875 -1.309198,0.849201 -0.984033,0.633635 0.706884,-0.468622 1.579414,-0.747086 2.129231,-1.392836 0.291423,-0.342267 -0.851378,0.291807 -1.286822,0.403445 -0.402201,0.103116 -0.814874,0.159898 -1.222314,0.239847 -1.673407,0.218639 -2.944402,-0.01167 -4.230825,-1.092753 -0.259114,-0.227062 -0.565113,-0.434165 -0.744151,-0.73873 -0.03442,-0.05854 -0.122851,-0.147484 -0.07076,-0.19105 0.07163,-0.05991 0.355227,-0.03855 0.27967,0.01633 -0.916538,0.6657 -1.900134,1.233802 -2.850203,1.850702 0.328113,-0.0271 0.655275,-0.0709 0.98434,-0.0813 1.00747,-0.03184 1.89733,0.05032 2.912481,0.06186 1.761143,0.02003 3.51823,-0.04743 5.275543,-0.150982 0.840763,-0.09716 1.425135,-0.128662 2.225669,-0.340556 0.211318,-0.05594 0.428223,-0.112384 0.616601,-0.223279 1.291479,-0.760259 4.207791,-1.396717 3.558712,-2.747497 -0.08284,-0.172408 -0.238736,-0.298926 -0.358105,-0.448389 -1.289693,-0.933985 -2.878358,-1.281155 -4.271333,-2.022452 -0.662834,-0.346212 0.966597,-0.772583 0.747368,-0.553421 -0.427283,0.427146 -2.114886,1.13987 -1.538824,0.957723 1.108374,-0.350462 2.092616,-1.015132 3.16198,-1.470956 3.668032,-1.563521 4.807762,-1.869972 8.630734,-3.172621 6.771156,-2.043374 13.691338,-3.778532 20.761947,-4.307451 0.912302,0.03151 3.518037,-0.248461 4.002521,0.978291 0.03919,0.09924 0.0095,0.213187 0.01429,0.31978 -0.04339,0.11221 -0.06646,0.234583 -0.130181,0.336631 -0.08765,0.140373 -0.190098,0.276276 -0.318066,0.381213 -0.206698,0.1695 -0.899554,0.577991 -0.674933,0.433076 0.710948,-0.458674 1.709742,-0.642301 2.133925,-1.374354 0.297278,-0.513043 -1.113232,0.410003 -1.678638,0.588619 -0.638493,0.201703 -1.287669,0.367896 -1.931501,0.551844 -3.704595,0.957788 -7.473701,1.642355 -11.260873,2.175303 -1.542717,0.237617 -1.628582,0.16887 -3.3631,2.457241 -0.213715,0.281956 0.707131,0.02765 1.060894,0.0325 0.495078,0.0068 0.990246,0.0024 1.485369,0.0024 2.132213,5.29e-4 1.217747,0.0094 3.415582,-0.04678 2.515164,-0.05752 5.026322,-0.270854 7.542721,-0.247835 2.498368,0.234553 4.98271,0.593887 7.482718,0.81348 1.409642,0.225938 2.872526,0.01897 4.28053,0.219041 0.939644,-0.733454 2.020718,-1.315072 2.818931,-2.200365 0.268703,-0.298016 -0.765183,0.242464 -1.151487,0.351015 -2.392844,0.672383 -4.812589,1.259641 -7.232568,1.824751 -2.110224,0.447117 -4.195877,1.058387 -6.339052,1.333053 -0.08584,0.0024 -0.190143,-0.04615 -0.257521,0.0071 -0.04062,0.0321 0.07388,0.07255 0.110823,0.108829 0.09399,0.01315 0.359886,-0.01474 0.281961,0.03942 -0.931286,0.647364 -1.992294,1.099773 -2.899682,1.780228 -0.235567,0.176652 0.561924,-0.178758 0.849349,-0.24267 0.422328,-0.09391 0.851564,-0.153493 1.277348,-0.230238 3.065475,-0.408165 6.161082,-0.517933 9.249732,-0.591373 1.75804,-0.01294 3.512167,-0.02682 5.267352,-0.130998 1.652421,-0.04749 3.296285,-0.204666 4.862861,-0.753345 1.280356,-0.729867 2.583387,-1.421315 3.841068,-2.189594 0.411104,-0.251129 0.860718,-1.041498 1.12649,-1.415584 0.315369,-0.4439 0.647989,-0.875321 0.966359,-1.317064 0.41745,-0.682006 1.49802,-2.049299 0.97933,-2.901349 -0.0851,-0.139832 -0.22732,-0.235628 -0.34098,-0.353442 -1.25626,-0.619318 -2.722521,-0.538384 -4.090348,-0.552352 -1.490535,-0.0046 -2.981071,0.0026 -4.471585,0.0097 -1.41323,-0.0031 -2.741382,-0.468105 -4.017859,-1.029465 -1.89375,-0.876065 -3.576006,-2.061513 -5.06961,-3.505246 -0.245504,-0.316674 -0.708314,-0.65411 -0.747168,-1.098702 -0.007,-0.07974 0.0123,-0.174113 0.06985,-0.229747 0.07549,-0.07298 0.38028,-0.175483 0.291439,-0.119521 -1.001186,0.630656 -2.021399,1.23059 -3.032096,1.845884 1.036428,-0.227635 2.074923,0.08644 3.049873,0.424313 1.18436,0.443687 2.108991,1.216175 2.727365,2.310854 0.316206,0.901682 0.756409,1.744688 1.25077,2.559767 0,0 3.414995,-1.981739 3.414995,-1.981739 v 0 c -0.49371,-0.811997 -0.902451,-1.665239 -1.244539,-2.551856 -0.673301,-1.159276 -1.635313,-2.021978 -2.883879,-2.539853 -1.035259,-0.391011 -2.078559,-0.684725 -3.198199,-0.668724 -2.749258,1.560223 -5.298045,1.731989 -3.045504,4.112376 0.250219,0.233426 0.927631,0.870976 1.159396,1.060812 1.225224,1.003563 2.622079,1.768112 3.997071,2.541008 1.289415,0.62389 2.645725,1.122702 4.093143,1.186575 1.495092,-0.0096 2.990133,-0.03213 4.485283,-0.02733 1.298554,0.01312 2.636451,-0.03573 3.893045,0.339021 0.07734,0.05625 0.178086,0.08977 0.232013,0.168735 0.375817,0.550349 -0.83027,2.126046 -1.097354,2.556264 -0.461873,0.631092 -0.905457,1.295151 -1.41066,1.892999 -0.90215,1.067585 -3.320595,2.145797 2.170043,-0.959144 -1.521536,0.661262 -3.172891,0.819997 -4.817832,0.874204 -1.757045,0.101119 -3.512563,0.12286 -5.272267,0.149151 -3.100549,0.101275 -6.204384,0.22678 -9.290204,0.558096 -2.784911,0.392126 -2.822739,0.501087 -6.006311,2.517368 -0.217133,0.137517 -0.08886,0.570637 0.06681,0.675696 0.08837,0.05964 0.212312,0.01971 0.318471,0.02958 2.184292,-0.276794 4.307986,-0.894416 6.454153,-1.369574 1.837894,-0.431569 3.665207,-0.898167 5.496116,-1.358183 0.566925,-0.142441 1.134528,-0.282172 1.702138,-0.421862 0.372298,-0.09162 0.787353,-0.07726 1.117577,-0.272071 1.253064,-0.739235 2.385822,-1.665655 3.578733,-2.498484 -0.464606,-0.165719 -1.047668,-0.08567 -1.532544,-0.09762 -0.955352,-0.02355 -1.910421,-0.06272 -2.863813,-0.129439 -2.507043,-0.199086 -5.001659,-0.511307 -7.49495,-0.837512 -2.539232,-0.05262 -5.06985,0.197188 -7.606755,0.274698 -1.95091,0.05279 -1.485418,0.05828 -3.38478,0.0408 -0.481779,-0.0044 -0.963525,-0.01254 -1.445233,-0.02188 -0.323739,-0.0063 -0.681704,-0.170185 -0.971077,-0.0249 -1.246113,0.625647 -2.377273,1.462347 -3.510375,2.274938 -0.139139,0.09978 0.333539,-0.07754 0.500311,-0.116306 3.811172,-0.608616 7.615518,-1.279692 11.366519,-2.196285 0.415491,-0.112792 3.11251,-0.816541 3.595798,-1.051007 1.55111,-0.752523 3.050935,-1.609121 4.536906,-2.483258 0.612579,-0.360356 0.940917,-0.866694 0.982414,-1.554515 -0.0374,-0.160351 -0.04215,-0.332046 -0.112205,-0.481052 -0.718637,-1.528455 -3.060247,-1.186288 -4.355176,-1.216191 -7.154876,0.583643 -14.152163,2.352241 -21.018532,4.388046 -3.812487,1.27626 -4.895487,1.566267 -8.553233,3.065444 -1.036007,0.424622 -2.077164,0.845368 -3.069989,1.362964 -1.717321,0.895302 -3.428669,1.813496 -5.051205,2.870914 -0.308626,0.201134 -0.570484,0.517168 -0.68489,0.867334 -0.04984,0.152524 0.18112,0.264922 0.271682,0.39738 1.349745,0.731443 2.870041,1.086988 4.175561,1.910289 0.07379,0.07617 0.179123,0.131249 0.22138,0.228523 0.02421,0.05571 -0.03031,0.117631 -0.04546,0.176446 1.033232,-0.563603 2.066467,-1.127202 3.099699,-1.690804 0.194773,-0.108263 -0.386905,0.226959 -0.597458,0.299931 -0.723307,0.250674 -1.485003,0.315802 -2.236166,0.423704 -1.748753,0.131167 -3.498032,0.217744 -5.253008,0.185457 -4.671904,-0.08595 1.089843,-0.06391 -2.88376,-0.125211 -0.327734,-0.0051 -0.655476,0.0095 -0.983215,0.01431 -2.648863,1.374812 -5.550371,1.610717 -3.115451,3.533484 1.409748,1.192762 2.619135,1.505349 4.489064,1.333806 0.651404,-0.110519 1.969818,-0.290385 2.566704,-0.576106 0.575363,-0.275421 4.129218,-1.954884 5.473965,-3.127449 0.411969,-0.359222 1.570228,-1.660816 1.882619,-2.004557 2.027084,-2.308437 3.986932,-4.714653 6.359448,-6.682629 -0.829093,0.445812 -1.655228,0.897168 -2.487274,1.337439 -0.27601,0.14605 0.542653,-0.309395 0.819052,-0.454705 0.304766,-0.160223 0.616424,-0.306977 0.924029,-0.461679 2.341469,-1.177581 4.608409,-2.500337 6.813954,-3.915765 0.607526,-0.433114 1.492864,-0.943323 1.897875,-1.636155 0.568415,-0.972361 -0.911535,-1.860381 -1.501584,-2.257689 -2.675673,-1.26842 -5.590342,-1.868421 -8.549312,-1.943419 -2.853137,-0.05419 -5.747695,-0.08017 -8.539179,0.598727 -2.605188,0.706565 -3.479723,1.400829 -6.289862,3.045012 -0.729965,0.427095 -1.335292,0.998924 -1.71558,1.758823 -0.250304,0.779353 -0.53444,1.92823 0.401749,2.420545 0.423852,0.222893 1.139396,0.125423 1.554657,0.112387 1.704494,-0.193432 3.39502,-0.491555 5.099587,-0.68066 2.588257,-0.287141 5.196247,-0.409332 7.799821,-0.35105 0.776153,0.02576 1.552671,0.04212 2.328453,0.07727 0.09032,0.0041 1.943788,0.240025 2.436196,-0.0026 1.137428,-0.560402 2.249202,-1.180554 3.30754,-1.878918 0.677135,-0.446822 -3.919611,1.647535 -2.35952,0.596784 -1.420775,0.265751 -2.609828,0.505827 -4.054184,0.697699 -2.949966,0.391882 -5.929471,0.41212 -8.898368,0.271411 -0.501618,-0.03086 -1.0037,-0.05495 -1.504852,-0.09259 -0.25263,-0.01897 -0.504656,-0.108262 -0.756087,-0.07722 -0.07184,0.0089 -0.05212,0.147519 -0.114242,0.184661 -1.013155,0.605735 -2.072005,1.132359 -3.089507,1.730764 -0.491964,0.28933 2.527993,-1.270509 1.606208,-0.593098 3.987073,-0.851307 8.085238,-0.960657 12.062495,-1.87135 2.949749,-0.845182 1.548521,-0.322626 5.845987,-2.797012 0.701503,-0.40391 0.840875,-1.032908 0.469029,-1.717604 -0.14021,-0.133713 -0.256701,-0.297873 -0.420637,-0.40114 -1.578419,-0.994282 -5.037294,-0.617015 -6.775378,-0.644534 -5.845326,0.384348 -11.683818,1.090528 -17.317816,2.767366 -0.976754,0.30958 -4.073072,1.237021 -5.107707,1.755036 -1.693944,0.848117 -3.372173,1.740871 -4.961117,2.772382 -0.334395,0.21708 -0.629202,0.552903 -0.747594,0.933599 -0.165113,0.530926 0.894809,1.053369 1.070201,1.174707 0.397121,0.215374 0.783047,0.452811 1.191364,0.646118 3.014378,1.42707 6.329253,2.177698 9.625897,2.559754 0.372253,0.0046 0.77969,0.171796 1.116759,0.01376 3.297055,-1.545918 4.779013,-1.764683 3.545213,-4.527383 -0.50645,-0.92741 -1.203709,-2.293586 -2.451299,-2.285789 -0.236246,0.0015 -0.463618,0.0912 -0.695428,0.136794 -2.691447,0.87768 -5.24964,2.123592 -7.852399,3.22669 -3.330226,1.565085 -6.535073,3.382603 -9.62034,5.385999 0,0 3.691868,-1.43202 3.691868,-1.43202 z" />
    <path
       style="fill:#2b1100;stroke-width:0.264583"
       id="path9679"
       d="m 18.450232,66.937767 c 2.150167,2.423811 4.012058,5.087856 5.6772,7.862999 0.716842,1.212538 1.314666,2.467173 1.80356,3.784743 0.406606,1.135398 0.799767,2.263513 1.286063,3.367778 1.052187,2.236036 2.113481,4.478956 3.448793,6.562667 1.285007,1.696201 1.777315,0.318926 4.330383,-1.439077 0.13957,-0.0961 0.110707,-1.840558 0.107341,-2.007391 -0.219138,-1.992585 -0.442029,-3.982802 -0.568481,-5.983886 0.02643,-0.770752 -0.223946,-1.718262 0.11852,-2.460585 0.519171,-1.125342 2.054564,-2.618126 2.876103,-3.520525 1.964867,-2.000001 4.136374,-3.771804 6.32183,-5.520531 1.162431,-0.838996 2.242203,-1.77088 3.429984,-2.575864 0.687758,-0.444733 1.347647,-0.91622 1.978133,-1.438749 0,0 -3.660396,1.47038 -3.660396,1.47038 v 0 c -0.639297,0.500256 -1.308598,0.954535 -1.980922,1.409121 -1.16241,0.822163 -2.247361,1.741558 -3.38994,2.590397 -2.15891,1.748751 -4.291676,3.536138 -6.218653,5.543661 -1.010809,1.121405 -2.332868,2.311302 -2.883675,3.765876 -0.29713,0.784669 -0.03049,1.732388 -0.06095,2.534711 0.145774,1.992754 0.3816,3.975534 0.545549,5.966216 -0.0095,0.508252 0.01842,0.948754 -0.11581,1.441585 -0.03168,0.116295 -0.273156,0.371189 -0.162717,0.322911 1.129652,-0.493816 2.193298,-1.126636 3.289946,-1.689952 -0.07079,0.0096 -0.153069,0.06855 -0.212363,0.02872 -0.153304,-0.103002 -0.243437,-0.277826 -0.365156,-0.416737 -1.398694,-2.018128 -2.446753,-4.249314 -3.400645,-6.506038 -0.45357,-1.109006 -0.868577,-2.226551 -1.264851,-3.357689 -0.492141,-1.346621 -1.148011,-2.595523 -1.905378,-3.815578 -1.730318,-2.761176 -3.632203,-5.412846 -5.668882,-7.956449 0,0 -3.354587,2.037291 -3.354587,2.037291 z" />
    <path
       style="fill:#2b1100;stroke-width:0.264583"
       id="path9681"
       d="m 67.327573,52.924516 c 0.70657,2.771992 1.838936,5.426152 3.066343,8.00353 1.047647,2.41718 2.518188,4.590264 3.947615,6.786612 0.763776,1.1122 1.485887,2.2421 2.142847,3.420293 0.69319,1.393044 1.378808,2.790441 2.038692,4.19962 0.05654,0.08982 1.010425,2.524527 1.149718,2.463416 3.780356,-1.658477 3.478133,-0.655066 3.746238,-2.557153 0.261747,-2.997716 0.27846,-6.01109 0.321101,-9.018084 0.122184,-1.704841 -0.125614,-3.44881 0.191105,-5.140018 0.17108,-0.913527 0.435475,-1.605804 0.728332,-2.484404 1.054389,-2.408816 2.718694,-4.485949 4.564084,-6.335164 1.153729,-1.197518 2.588675,-2.035339 3.954819,-2.955711 1.113235,-0.817335 3.793176,-2.305796 -1.633818,0.879327 0,0 3.069649,-2.466462 3.069649,-2.466462 v 0 c -1.716741,0.97848 -3.487606,1.865217 -5.094259,3.018605 -1.37174,0.9052 -2.7559,1.806713 -3.886544,3.017194 -1.814126,1.91451 -3.490486,4.020122 -4.4769,6.490587 -0.299461,0.945623 -0.535088,1.578157 -0.704141,2.560433 -0.292603,1.700144 -0.02463,3.438721 -0.128186,5.150152 -0.04015,2.996631 -0.0303,6.017604 -0.466103,8.987832 -0.629081,1.568236 -0.475541,0.893472 3.220924,-1.188458 0.07289,-0.04106 -0.1309,-0.108754 -0.175162,-0.179744 -0.135702,-0.217649 -0.521335,-1.09582 -0.591101,-1.253718 -0.133408,-0.301956 -0.263271,-0.605465 -0.394906,-0.908198 -0.65256,-1.424292 -1.309754,-2.84843 -2.023457,-4.243147 -0.667144,-1.183333 -1.375312,-2.33667 -2.172007,-3.438596 -1.471252,-2.149705 -2.966764,-4.282922 -3.980555,-6.702978 -1.215253,-2.552541 -2.385579,-5.181788 -2.925093,-7.971271 0,0 -3.489235,1.865505 -3.489235,1.865505 z" />
    <path
       style="fill:#2b1100;stroke-width:0.264583"
       id="path9683"
       d="m 123.2282,66.301833 c 3.45282,5.259555 6.70379,10.645217 9.90204,16.06204 1.18764,1.837406 2.16666,3.828536 3.51537,5.561941 0.047,0.06037 0.77562,1.119433 1.22058,0.866182 1.30623,-0.74344 2.47504,-1.705859 3.71256,-2.558785 0.95168,-8.757785 3.0312,-17.337043 5.29957,-25.831766 1.31013,-4.052416 2.18591,-8.614915 4.94598,-12.009098 0.97325,-1.196854 1.58512,-1.589657 2.74985,-2.516582 -3.20908,1.932313 -2.01403,1.080918 -0.57527,0.601977 0.40673,-0.135395 0.83162,-0.208462 1.24743,-0.312692 0,0 3.08,-2.347058 3.08,-2.347058 v 0 c -0.4309,0.09257 -0.86998,0.153043 -1.29272,0.277709 -2.25375,0.664636 -3.87935,1.968413 -6.01336,3.211849 -1.13982,0.968607 -1.71294,1.357907 -2.65162,2.595615 -2.62759,3.46461 -3.37951,7.948221 -4.63185,11.998732 -1.40757,5.461252 -2.74518,10.929734 -3.89882,16.451477 -1.22027,5.840711 -0.58651,3.106497 -1.53623,8.032274 -0.094,0.487402 -0.20912,0.970481 -0.31369,1.455719 1.02274,-0.46128 2.04823,-0.916496 3.06821,-1.383845 0.13369,-0.06126 -0.27473,0.225388 -0.40899,0.165404 -0.28995,-0.129535 -0.48298,-0.416031 -0.69034,-0.656542 -1.42892,-1.657337 -2.43657,-3.638799 -3.65822,-5.438532 -3.26114,-5.371727 -6.50584,-10.754974 -9.67178,-16.183181 0,0 -3.3987,1.957162 -3.3987,1.957162 z" />
    <path
       style="fill:#2b1100;stroke-width:0.264583"
       id="path9685"
       d="m 168.2722,55.124876 c 1.84969,1.585748 3.48282,3.401435 5.14455,5.177787 1.53273,1.716175 3.07755,3.445769 4.25626,5.430607 0.57128,1.414376 0.43627,2.997338 0.39898,4.49343 0.006,1.607314 0.0932,3.651234 0.8433,5.100058 3.87238,1.929254 4.87146,-5.080334 5.41158,-6.985122 0.25626,-0.903729 0.53991,-1.799468 0.80986,-2.699205 1.13914,-3.397562 2.20319,-6.839855 3.7452,-10.083353 0.48303,-1.016034 1.08561,-2.108525 1.62235,-3.104753 0.82594,-1.613728 2.01155,-2.904818 3.35982,-4.084153 0,0 -3.64311,1.485103 -3.64311,1.485103 v 0 c -1.31964,1.204466 -2.43218,2.558003 -3.2237,4.176401 -0.51424,0.99459 -1.09592,2.093073 -1.5559,3.105771 -1.48245,3.263779 -2.49651,6.71422 -3.66946,10.094278 -0.29059,0.914191 -0.59332,1.824609 -0.87177,2.74257 -0.37495,1.236115 -0.62267,2.318078 -1.0368,3.525144 -0.12331,0.359431 -0.794,1.104842 -0.41652,1.06117 1.92171,-0.222337 3.95595,-2.229504 2.89467,-1.202092 -0.7789,-1.326018 -0.7757,-3.403166 -0.76894,-4.906801 0.0225,-1.566701 0.15475,-3.227012 -0.50705,-4.68735 -1.23263,-1.982793 -2.80967,-3.71742 -4.33593,-5.475457 -1.6569,-1.79007 -3.34041,-3.560117 -5.10268,-5.247013 0,0 -3.35471,2.08298 -3.35471,2.08298 z" />
    <path
       style="fill:#2b1100;stroke-width:0.264583"
       id="path9687"
       d="m 44.543022,101.42391 c 2.576877,2.81278 4.445571,6.16175 6.173859,9.53643 0.631465,1.31289 1.367199,2.58469 1.913278,3.93851 0.380363,0.94298 0.609778,1.93759 0.858716,2.9202 0.762572,3.06997 1.694476,6.10745 2.842263,9.05603 0.378047,0.70318 0.525465,1.75354 1.195194,2.29163 0.118988,0.0956 0.288795,0.24028 0.424791,0.17097 3.86138,-1.96776 3.313443,-1.02478 4.066167,-3.26346 1.674519,-5.60662 3.463999,-11.17728 5.192575,-16.76747 1.154028,-3.7668 2.003872,-7.65732 3.889364,-11.146057 0.809255,-1.421299 2.043555,-2.444527 3.30363,-3.443602 0,0 -3.596621,1.446411 -3.596621,1.446411 v 0 c -1.255708,1.044218 -2.471854,2.118889 -3.243461,3.590642 -1.754466,3.517916 -2.578315,7.366606 -3.67152,11.121126 -1.710539,5.64179 -3.514508,11.25608 -5.416174,16.83605 -0.140174,0.29419 -0.737002,0.96027 -0.420521,0.88258 1.131057,-0.27768 2.095852,-1.0168 3.132151,-1.5483 0.08717,-0.0447 -0.192233,0.12739 -0.281033,0.086 -0.157953,-0.0736 -0.258252,-0.23858 -0.355986,-0.38285 -0.324943,-0.47966 -0.625935,-1.25579 -0.843992,-1.75766 -1.191971,-2.91832 -2.106938,-5.95041 -2.788306,-9.02779 -0.152955,-0.60074 -0.348935,-1.41349 -0.542803,-2.00371 -0.566378,-1.7243 -1.560121,-3.26495 -2.36306,-4.88123 -1.768697,-3.38377 -3.623617,-6.75153 -6.102749,-9.678717 0,0 -3.365762,2.024247 -3.365762,2.024247 z" />
  </g>
</svg>
